<?xml version="1.0" encoding="utf-8" standalone="no"?>
<!DOCTYPE svg PUBLIC "-//W3C//DTD SVG 1.1//EN"
  "http://www.w3.org/Graphics/SVG/1.1/DTD/svg11.dtd">
<!-- Created with matplotlib (http://matplotlib.org/) -->
<svg height="720pt" version="1.1" viewBox="0 0 1440 720" width="1440pt" xmlns="http://www.w3.org/2000/svg" xmlns:xlink="http://www.w3.org/1999/xlink">
 <defs>
  <style type="text/css">
*{stroke-linecap:butt;stroke-linejoin:round;}
  </style>
 </defs>
 <g id="figure_1">
  <g id="patch_1">
   <path d="M 0 720 
L 1440 720 
L 1440 0 
L 0 0 
z
" style="fill:#ffffff;"/>
  </g>
  <g id="axes_1">
   <g id="patch_2">
    <path d="M 13.32 668.792 
L 1426.68 668.792 
L 1426.68 26.68875 
L 13.32 26.68875 
z
" style="fill:#ffffff;"/>
   </g>
   <g id="patch_3">
    <path clip-path="url(#pce33f53817)" d="M 77.563636 347.740375 
L 120.392727 347.740375 
L 120.392727 418.93184 
L 77.563636 418.93184 
z
" style="fill:#a50026;"/>
   </g>
   <g id="patch_4">
    <path clip-path="url(#pce33f53817)" d="M 120.392727 347.740375 
L 163.221818 347.740375 
L 163.221818 450.880438 
L 120.392727 450.880438 
z
" style="fill:#b50f26;"/>
   </g>
   <g id="patch_5">
    <path clip-path="url(#pce33f53817)" d="M 163.221818 347.740375 
L 206.050909 347.740375 
L 206.050909 496.699588 
L 163.221818 496.699588 
z
" style="fill:#c62027;"/>
   </g>
   <g id="patch_6">
    <path clip-path="url(#pce33f53817)" d="M 206.050909 347.740375 
L 248.88 347.740375 
L 248.88 228.819076 
L 206.050909 228.819076 
z
" style="fill:#d83128;"/>
   </g>
   <g id="patch_7">
    <path clip-path="url(#pce33f53817)" d="M 248.88 347.740375 
L 291.709091 347.740375 
L 291.709091 178.951758 
L 248.88 178.951758 
z
" style="fill:#e24731;"/>
   </g>
   <g id="patch_8">
    <path clip-path="url(#pce33f53817)" d="M 291.709091 347.740375 
L 334.538182 347.740375 
L 334.538182 528.006484 
L 291.709091 528.006484 
z
" style="fill:#ec5c3b;"/>
   </g>
   <g id="patch_9">
    <path clip-path="url(#pce33f53817)" d="M 334.538182 347.740375 
L 377.367273 347.740375 
L 377.367273 189.589355 
L 334.538182 189.589355 
z
" style="fill:#f47044;"/>
   </g>
   <g id="patch_10">
    <path clip-path="url(#pce33f53817)" d="M 377.367273 347.740375 
L 420.196364 347.740375 
L 420.196364 348.906941 
L 377.367273 348.906941 
z
" style="fill:#f8864f;"/>
   </g>
   <g id="patch_11">
    <path clip-path="url(#pce33f53817)" d="M 420.196364 347.740375 
L 463.025455 347.740375 
L 463.025455 525.534224 
L 420.196364 525.534224 
z
" style="fill:#fb9d59;"/>
   </g>
   <g id="patch_12">
    <path clip-path="url(#pce33f53817)" d="M 463.025455 347.740375 
L 505.854545 347.740375 
L 505.854545 486.1899 
L 463.025455 486.1899 
z
" style="fill:#fdb366;"/>
   </g>
   <g id="patch_13">
    <path clip-path="url(#pce33f53817)" d="M 505.854545 347.740375 
L 548.683636 347.740375 
L 548.683636 494.761566 
L 505.854545 494.761566 
z
" style="fill:#fdc576;"/>
   </g>
   <g id="patch_14">
    <path clip-path="url(#pce33f53817)" d="M 548.683636 347.740375 
L 591.512727 347.740375 
L 591.512727 277.284029 
L 548.683636 277.284029 
z
" style="fill:#fed687;"/>
   </g>
   <g id="patch_15">
    <path clip-path="url(#pce33f53817)" d="M 591.512727 347.740375 
L 634.341818 347.740375 
L 634.341818 321.49698 
L 591.512727 321.49698 
z
" style="fill:#fee496;"/>
   </g>
   <g id="patch_16">
    <path clip-path="url(#pce33f53817)" d="M 634.341818 347.740375 
L 677.170909 347.740375 
L 677.170909 302.903807 
L 634.341818 302.903807 
z
" style="fill:#feefa6;"/>
   </g>
   <g id="patch_17">
    <path clip-path="url(#pce33f53817)" d="M 677.170909 347.740375 
L 720 347.740375 
L 720 278.822973 
L 677.170909 278.822973 
z
" style="fill:#fffab7;"/>
   </g>
   <g id="patch_18">
    <path clip-path="url(#pce33f53817)" d="M 720 347.740375 
L 762.829091 347.740375 
L 762.829091 213.464424 
L 720 213.464424 
z
" style="fill:#fafdc9;"/>
   </g>
   <g id="patch_19">
    <path clip-path="url(#pce33f53817)" d="M 762.829091 347.740375 
L 805.658182 347.740375 
L 805.658182 457.715524 
L 762.829091 457.715524 
z
" style="fill:#eff9dd;"/>
   </g>
   <g id="patch_20">
    <path clip-path="url(#pce33f53817)" d="M 805.658182 347.740375 
L 848.487273 347.740375 
L 848.487273 279.883674 
L 805.658182 279.883674 
z
" style="fill:#e4f4f1;"/>
   </g>
   <g id="patch_21">
    <path clip-path="url(#pce33f53817)" d="M 848.487273 347.740375 
L 891.316364 347.740375 
L 891.316364 454.227983 
L 848.487273 454.227983 
z
" style="fill:#d6eef5;"/>
   </g>
   <g id="patch_22">
    <path clip-path="url(#pce33f53817)" d="M 891.316364 347.740375 
L 934.145455 347.740375 
L 934.145455 443.645305 
L 891.316364 443.645305 
z
" style="fill:#c3e5f0;"/>
   </g>
   <g id="patch_23">
    <path clip-path="url(#pce33f53817)" d="M 934.145455 347.740375 
L 976.974545 347.740375 
L 976.974545 287.466249 
L 934.145455 287.466249 
z
" style="fill:#b0dcea;"/>
   </g>
   <g id="patch_24">
    <path clip-path="url(#pce33f53817)" d="M 976.974545 347.740375 
L 1019.803636 347.740375 
L 1019.803636 271.784753 
L 976.974545 271.784753 
z
" style="fill:#9dcee3;"/>
   </g>
   <g id="patch_25">
    <path clip-path="url(#pce33f53817)" d="M 1019.803636 347.740375 
L 1062.632727 347.740375 
L 1062.632727 344.618403 
L 1019.803636 344.618403 
z
" style="fill:#8abeda;"/>
   </g>
   <g id="patch_26">
    <path clip-path="url(#pce33f53817)" d="M 1062.632727 347.740375 
L 1105.461818 347.740375 
L 1105.461818 284.336817 
L 1062.632727 284.336817 
z
" style="fill:#76afd2;"/>
   </g>
   <g id="patch_27">
    <path clip-path="url(#pce33f53817)" d="M 1105.461818 347.740375 
L 1148.290909 347.740375 
L 1148.290909 254.385821 
L 1105.461818 254.385821 
z
" style="fill:#679ec9;"/>
   </g>
   <g id="patch_28">
    <path clip-path="url(#pce33f53817)" d="M 1148.290909 347.740375 
L 1191.12 347.740375 
L 1191.12 348.906941 
L 1148.290909 348.906941 
z
" style="fill:#578abf;"/>
   </g>
   <g id="patch_29">
    <path clip-path="url(#pce33f53817)" d="M 1191.12 347.740375 
L 1233.949091 347.740375 
L 1233.949091 288.232945 
L 1191.12 288.232945 
z
" style="fill:#4676b5;"/>
   </g>
   <g id="patch_30">
    <path clip-path="url(#pce33f53817)" d="M 1233.949091 347.740375 
L 1276.778182 347.740375 
L 1276.778182 130.686665 
L 1233.949091 130.686665 
z
" style="fill:#3e60aa;"/>
   </g>
   <g id="patch_31">
    <path clip-path="url(#pce33f53817)" d="M 1276.778182 347.740375 
L 1319.607273 347.740375 
L 1319.607273 119.385634 
L 1276.778182 119.385634 
z
" style="fill:#374a9f;"/>
   </g>
   <g id="patch_32">
    <path clip-path="url(#pce33f53817)" d="M 1319.607273 347.740375 
L 1362.436364 347.740375 
L 1362.436364 443.863639 
L 1319.607273 443.863639 
z
" style="fill:#313695;"/>
   </g>
   <g id="matplotlib.axis_1">
    <g id="xtick_1">
     <g id="line2d_1">
      <defs>
       <path d="M 0 0 
L 0 3.5 
" id="m9200325ad7" style="stroke:#000000;stroke-width:0.8;"/>
      </defs>
      <g>
       <use style="stroke:#000000;stroke-width:0.8;" x="98.978182" xlink:href="#m9200325ad7" y="668.792"/>
      </g>
     </g>
     <g id="text_1">
      <!-- aerials -->
      <defs>
       <path d="M 34.28125 27.484375 
Q 23.390625 27.484375 19.1875 25 
Q 14.984375 22.515625 14.984375 16.5 
Q 14.984375 11.71875 18.140625 8.90625 
Q 21.296875 6.109375 26.703125 6.109375 
Q 34.1875 6.109375 38.703125 11.40625 
Q 43.21875 16.703125 43.21875 25.484375 
L 43.21875 27.484375 
z
M 52.203125 31.203125 
L 52.203125 0 
L 43.21875 0 
L 43.21875 8.296875 
Q 40.140625 3.328125 35.546875 0.953125 
Q 30.953125 -1.421875 24.3125 -1.421875 
Q 15.921875 -1.421875 10.953125 3.296875 
Q 6 8.015625 6 15.921875 
Q 6 25.140625 12.171875 29.828125 
Q 18.359375 34.515625 30.609375 34.515625 
L 43.21875 34.515625 
L 43.21875 35.40625 
Q 43.21875 41.609375 39.140625 45 
Q 35.0625 48.390625 27.6875 48.390625 
Q 23 48.390625 18.546875 47.265625 
Q 14.109375 46.140625 10.015625 43.890625 
L 10.015625 52.203125 
Q 14.9375 54.109375 19.578125 55.046875 
Q 24.21875 56 28.609375 56 
Q 40.484375 56 46.34375 49.84375 
Q 52.203125 43.703125 52.203125 31.203125 
z
" id="DejaVuSans-61"/>
       <path d="M 56.203125 29.59375 
L 56.203125 25.203125 
L 14.890625 25.203125 
Q 15.484375 15.921875 20.484375 11.0625 
Q 25.484375 6.203125 34.421875 6.203125 
Q 39.59375 6.203125 44.453125 7.46875 
Q 49.3125 8.734375 54.109375 11.28125 
L 54.109375 2.78125 
Q 49.265625 0.734375 44.1875 -0.34375 
Q 39.109375 -1.421875 33.890625 -1.421875 
Q 20.796875 -1.421875 13.15625 6.1875 
Q 5.515625 13.8125 5.515625 26.8125 
Q 5.515625 40.234375 12.765625 48.109375 
Q 20.015625 56 32.328125 56 
Q 43.359375 56 49.78125 48.890625 
Q 56.203125 41.796875 56.203125 29.59375 
z
M 47.21875 32.234375 
Q 47.125 39.59375 43.09375 43.984375 
Q 39.0625 48.390625 32.421875 48.390625 
Q 24.90625 48.390625 20.390625 44.140625 
Q 15.875 39.890625 15.1875 32.171875 
z
" id="DejaVuSans-65"/>
       <path d="M 41.109375 46.296875 
Q 39.59375 47.171875 37.8125 47.578125 
Q 36.03125 48 33.890625 48 
Q 26.265625 48 22.1875 43.046875 
Q 18.109375 38.09375 18.109375 28.8125 
L 18.109375 0 
L 9.078125 0 
L 9.078125 54.6875 
L 18.109375 54.6875 
L 18.109375 46.1875 
Q 20.953125 51.171875 25.484375 53.578125 
Q 30.03125 56 36.53125 56 
Q 37.453125 56 38.578125 55.875 
Q 39.703125 55.765625 41.0625 55.515625 
z
" id="DejaVuSans-72"/>
       <path d="M 9.421875 54.6875 
L 18.40625 54.6875 
L 18.40625 0 
L 9.421875 0 
z
M 9.421875 75.984375 
L 18.40625 75.984375 
L 18.40625 64.59375 
L 9.421875 64.59375 
z
" id="DejaVuSans-69"/>
       <path d="M 9.421875 75.984375 
L 18.40625 75.984375 
L 18.40625 0 
L 9.421875 0 
z
" id="DejaVuSans-6c"/>
       <path d="M 44.28125 53.078125 
L 44.28125 44.578125 
Q 40.484375 46.53125 36.375 47.5 
Q 32.28125 48.484375 27.875 48.484375 
Q 21.1875 48.484375 17.84375 46.4375 
Q 14.5 44.390625 14.5 40.28125 
Q 14.5 37.15625 16.890625 35.375 
Q 19.28125 33.59375 26.515625 31.984375 
L 29.59375 31.296875 
Q 39.15625 29.25 43.1875 25.515625 
Q 47.21875 21.78125 47.21875 15.09375 
Q 47.21875 7.46875 41.1875 3.015625 
Q 35.15625 -1.421875 24.609375 -1.421875 
Q 20.21875 -1.421875 15.453125 -0.5625 
Q 10.6875 0.296875 5.421875 2 
L 5.421875 11.28125 
Q 10.40625 8.6875 15.234375 7.390625 
Q 20.0625 6.109375 24.8125 6.109375 
Q 31.15625 6.109375 34.5625 8.28125 
Q 37.984375 10.453125 37.984375 14.40625 
Q 37.984375 18.0625 35.515625 20.015625 
Q 33.0625 21.96875 24.703125 23.78125 
L 21.578125 24.515625 
Q 13.234375 26.265625 9.515625 29.90625 
Q 5.8125 33.546875 5.8125 39.890625 
Q 5.8125 47.609375 11.28125 51.796875 
Q 16.75 56 26.8125 56 
Q 31.78125 56 36.171875 55.265625 
Q 40.578125 54.546875 44.28125 53.078125 
z
" id="DejaVuSans-73"/>
      </defs>
      <g transform="translate(82.335213 683.390437)scale(0.1 -0.1)">
       <use xlink:href="#DejaVuSans-61"/>
       <use x="61.279297" xlink:href="#DejaVuSans-65"/>
       <use x="122.802734" xlink:href="#DejaVuSans-72"/>
       <use x="163.916016" xlink:href="#DejaVuSans-69"/>
       <use x="191.699219" xlink:href="#DejaVuSans-61"/>
       <use x="252.978516" xlink:href="#DejaVuSans-6c"/>
       <use x="280.761719" xlink:href="#DejaVuSans-73"/>
      </g>
      <!-- Total -->
      <defs>
       <path d="M -0.296875 72.90625 
L 61.375 72.90625 
L 61.375 64.59375 
L 35.5 64.59375 
L 35.5 0 
L 25.59375 0 
L 25.59375 64.59375 
L -0.296875 64.59375 
z
" id="DejaVuSans-54"/>
       <path d="M 30.609375 48.390625 
Q 23.390625 48.390625 19.1875 42.75 
Q 14.984375 37.109375 14.984375 27.296875 
Q 14.984375 17.484375 19.15625 11.84375 
Q 23.34375 6.203125 30.609375 6.203125 
Q 37.796875 6.203125 41.984375 11.859375 
Q 46.1875 17.53125 46.1875 27.296875 
Q 46.1875 37.015625 41.984375 42.703125 
Q 37.796875 48.390625 30.609375 48.390625 
z
M 30.609375 56 
Q 42.328125 56 49.015625 48.375 
Q 55.71875 40.765625 55.71875 27.296875 
Q 55.71875 13.875 49.015625 6.21875 
Q 42.328125 -1.421875 30.609375 -1.421875 
Q 18.84375 -1.421875 12.171875 6.21875 
Q 5.515625 13.875 5.515625 27.296875 
Q 5.515625 40.765625 12.171875 48.375 
Q 18.84375 56 30.609375 56 
z
" id="DejaVuSans-6f"/>
       <path d="M 18.3125 70.21875 
L 18.3125 54.6875 
L 36.8125 54.6875 
L 36.8125 47.703125 
L 18.3125 47.703125 
L 18.3125 18.015625 
Q 18.3125 11.328125 20.140625 9.421875 
Q 21.96875 7.515625 27.59375 7.515625 
L 36.8125 7.515625 
L 36.8125 0 
L 27.59375 0 
Q 17.1875 0 13.234375 3.875 
Q 9.28125 7.765625 9.28125 18.015625 
L 9.28125 47.703125 
L 2.6875 47.703125 
L 2.6875 54.6875 
L 9.28125 54.6875 
L 9.28125 70.21875 
z
" id="DejaVuSans-74"/>
      </defs>
      <g transform="translate(86.464901 694.58825)scale(0.1 -0.1)">
       <use xlink:href="#DejaVuSans-54"/>
       <use x="60.818359" xlink:href="#DejaVuSans-6f"/>
       <use x="122" xlink:href="#DejaVuSans-74"/>
       <use x="161.208984" xlink:href="#DejaVuSans-61"/>
       <use x="222.488281" xlink:href="#DejaVuSans-6c"/>
      </g>
     </g>
    </g>
    <g id="xtick_2">
     <g id="line2d_2">
      <g>
       <use style="stroke:#000000;stroke-width:0.8;" x="141.807273" xlink:href="#m9200325ad7" y="668.792"/>
      </g>
     </g>
     <g id="text_2">
      <!-- aerials -->
      <g transform="translate(125.164304 683.390437)scale(0.1 -0.1)">
       <use xlink:href="#DejaVuSans-61"/>
       <use x="61.279297" xlink:href="#DejaVuSans-65"/>
       <use x="122.802734" xlink:href="#DejaVuSans-72"/>
       <use x="163.916016" xlink:href="#DejaVuSans-69"/>
       <use x="191.699219" xlink:href="#DejaVuSans-61"/>
       <use x="252.978516" xlink:href="#DejaVuSans-6c"/>
       <use x="280.761719" xlink:href="#DejaVuSans-73"/>
      </g>
      <!-- Won -->
      <defs>
       <path d="M 3.328125 72.90625 
L 13.28125 72.90625 
L 28.609375 11.28125 
L 43.890625 72.90625 
L 54.984375 72.90625 
L 70.3125 11.28125 
L 85.59375 72.90625 
L 95.609375 72.90625 
L 77.296875 0 
L 64.890625 0 
L 49.515625 63.28125 
L 33.984375 0 
L 21.578125 0 
z
" id="DejaVuSans-57"/>
       <path d="M 54.890625 33.015625 
L 54.890625 0 
L 45.90625 0 
L 45.90625 32.71875 
Q 45.90625 40.484375 42.875 44.328125 
Q 39.84375 48.1875 33.796875 48.1875 
Q 26.515625 48.1875 22.3125 43.546875 
Q 18.109375 38.921875 18.109375 30.90625 
L 18.109375 0 
L 9.078125 0 
L 9.078125 54.6875 
L 18.109375 54.6875 
L 18.109375 46.1875 
Q 21.34375 51.125 25.703125 53.5625 
Q 30.078125 56 35.796875 56 
Q 45.21875 56 50.046875 50.171875 
Q 54.890625 44.34375 54.890625 33.015625 
z
" id="DejaVuSans-6e"/>
      </defs>
      <g transform="translate(130.639304 694.58825)scale(0.1 -0.1)">
       <use xlink:href="#DejaVuSans-57"/>
       <use x="98.798828" xlink:href="#DejaVuSans-6f"/>
       <use x="159.980469" xlink:href="#DejaVuSans-6e"/>
      </g>
     </g>
    </g>
    <g id="xtick_3">
     <g id="line2d_3">
      <g>
       <use style="stroke:#000000;stroke-width:0.8;" x="184.636364" xlink:href="#m9200325ad7" y="668.792"/>
      </g>
     </g>
     <g id="text_3">
      <!-- clearances -->
      <defs>
       <path d="M 48.78125 52.59375 
L 48.78125 44.1875 
Q 44.96875 46.296875 41.140625 47.34375 
Q 37.3125 48.390625 33.40625 48.390625 
Q 24.65625 48.390625 19.8125 42.84375 
Q 14.984375 37.3125 14.984375 27.296875 
Q 14.984375 17.28125 19.8125 11.734375 
Q 24.65625 6.203125 33.40625 6.203125 
Q 37.3125 6.203125 41.140625 7.25 
Q 44.96875 8.296875 48.78125 10.40625 
L 48.78125 2.09375 
Q 45.015625 0.34375 40.984375 -0.53125 
Q 36.96875 -1.421875 32.421875 -1.421875 
Q 20.0625 -1.421875 12.78125 6.34375 
Q 5.515625 14.109375 5.515625 27.296875 
Q 5.515625 40.671875 12.859375 48.328125 
Q 20.21875 56 33.015625 56 
Q 37.15625 56 41.109375 55.140625 
Q 45.0625 54.296875 48.78125 52.59375 
z
" id="DejaVuSans-63"/>
      </defs>
      <g transform="translate(157.638707 683.390437)scale(0.1 -0.1)">
       <use xlink:href="#DejaVuSans-63"/>
       <use x="54.980469" xlink:href="#DejaVuSans-6c"/>
       <use x="82.763672" xlink:href="#DejaVuSans-65"/>
       <use x="144.287109" xlink:href="#DejaVuSans-61"/>
       <use x="205.566406" xlink:href="#DejaVuSans-72"/>
       <use x="246.679688" xlink:href="#DejaVuSans-61"/>
       <use x="307.958984" xlink:href="#DejaVuSans-6e"/>
       <use x="371.337891" xlink:href="#DejaVuSans-63"/>
       <use x="426.318359" xlink:href="#DejaVuSans-65"/>
       <use x="487.841797" xlink:href="#DejaVuSans-73"/>
      </g>
     </g>
    </g>
    <g id="xtick_4">
     <g id="line2d_4">
      <g>
       <use style="stroke:#000000;stroke-width:0.8;" x="227.465455" xlink:href="#m9200325ad7" y="668.792"/>
      </g>
     </g>
     <g id="text_4">
      <!-- corners -->
      <g transform="translate(208.696705 683.390437)scale(0.1 -0.1)">
       <use xlink:href="#DejaVuSans-63"/>
       <use x="54.980469" xlink:href="#DejaVuSans-6f"/>
       <use x="116.162109" xlink:href="#DejaVuSans-72"/>
       <use x="157.259766" xlink:href="#DejaVuSans-6e"/>
       <use x="220.638672" xlink:href="#DejaVuSans-65"/>
       <use x="282.162109" xlink:href="#DejaVuSans-72"/>
       <use x="323.275391" xlink:href="#DejaVuSans-73"/>
      </g>
      <!-- Accurate -->
      <defs>
       <path d="M 34.1875 63.1875 
L 20.796875 26.90625 
L 47.609375 26.90625 
z
M 28.609375 72.90625 
L 39.796875 72.90625 
L 67.578125 0 
L 57.328125 0 
L 50.6875 18.703125 
L 17.828125 18.703125 
L 11.1875 0 
L 0.78125 0 
z
" id="DejaVuSans-41"/>
       <path d="M 8.5 21.578125 
L 8.5 54.6875 
L 17.484375 54.6875 
L 17.484375 21.921875 
Q 17.484375 14.15625 20.5 10.265625 
Q 23.53125 6.390625 29.59375 6.390625 
Q 36.859375 6.390625 41.078125 11.03125 
Q 45.3125 15.671875 45.3125 23.6875 
L 45.3125 54.6875 
L 54.296875 54.6875 
L 54.296875 0 
L 45.3125 0 
L 45.3125 8.40625 
Q 42.046875 3.421875 37.71875 1 
Q 33.40625 -1.421875 27.6875 -1.421875 
Q 18.265625 -1.421875 13.375 4.4375 
Q 8.5 10.296875 8.5 21.578125 
z
M 31.109375 56 
z
" id="DejaVuSans-75"/>
      </defs>
      <g transform="translate(205.222486 694.58825)scale(0.1 -0.1)">
       <use xlink:href="#DejaVuSans-41"/>
       <use x="68.392578" xlink:href="#DejaVuSans-63"/>
       <use x="123.373047" xlink:href="#DejaVuSans-63"/>
       <use x="178.353516" xlink:href="#DejaVuSans-75"/>
       <use x="241.732422" xlink:href="#DejaVuSans-72"/>
       <use x="282.845703" xlink:href="#DejaVuSans-61"/>
       <use x="344.125" xlink:href="#DejaVuSans-74"/>
       <use x="383.333984" xlink:href="#DejaVuSans-65"/>
      </g>
     </g>
    </g>
    <g id="xtick_5">
     <g id="line2d_5">
      <g>
       <use style="stroke:#000000;stroke-width:0.8;" x="270.294545" xlink:href="#m9200325ad7" y="668.792"/>
      </g>
     </g>
     <g id="text_5">
      <!-- corners -->
      <g transform="translate(251.525795 683.390437)scale(0.1 -0.1)">
       <use xlink:href="#DejaVuSans-63"/>
       <use x="54.980469" xlink:href="#DejaVuSans-6f"/>
       <use x="116.162109" xlink:href="#DejaVuSans-72"/>
       <use x="157.259766" xlink:href="#DejaVuSans-6e"/>
       <use x="220.638672" xlink:href="#DejaVuSans-65"/>
       <use x="282.162109" xlink:href="#DejaVuSans-72"/>
       <use x="323.275391" xlink:href="#DejaVuSans-73"/>
      </g>
      <!-- Total -->
      <g transform="translate(257.781264 694.58825)scale(0.1 -0.1)">
       <use xlink:href="#DejaVuSans-54"/>
       <use x="60.818359" xlink:href="#DejaVuSans-6f"/>
       <use x="122" xlink:href="#DejaVuSans-74"/>
       <use x="161.208984" xlink:href="#DejaVuSans-61"/>
       <use x="222.488281" xlink:href="#DejaVuSans-6c"/>
      </g>
     </g>
    </g>
    <g id="xtick_6">
     <g id="line2d_6">
      <g>
       <use style="stroke:#000000;stroke-width:0.8;" x="313.123636" xlink:href="#m9200325ad7" y="668.792"/>
      </g>
     </g>
     <g id="text_6">
      <!-- defensive -->
      <defs>
       <path d="M 45.40625 46.390625 
L 45.40625 75.984375 
L 54.390625 75.984375 
L 54.390625 0 
L 45.40625 0 
L 45.40625 8.203125 
Q 42.578125 3.328125 38.25 0.953125 
Q 33.9375 -1.421875 27.875 -1.421875 
Q 17.96875 -1.421875 11.734375 6.484375 
Q 5.515625 14.40625 5.515625 27.296875 
Q 5.515625 40.1875 11.734375 48.09375 
Q 17.96875 56 27.875 56 
Q 33.9375 56 38.25 53.625 
Q 42.578125 51.265625 45.40625 46.390625 
z
M 14.796875 27.296875 
Q 14.796875 17.390625 18.875 11.75 
Q 22.953125 6.109375 30.078125 6.109375 
Q 37.203125 6.109375 41.296875 11.75 
Q 45.40625 17.390625 45.40625 27.296875 
Q 45.40625 37.203125 41.296875 42.84375 
Q 37.203125 48.484375 30.078125 48.484375 
Q 22.953125 48.484375 18.875 42.84375 
Q 14.796875 37.203125 14.796875 27.296875 
z
" id="DejaVuSans-64"/>
       <path d="M 37.109375 75.984375 
L 37.109375 68.5 
L 28.515625 68.5 
Q 23.6875 68.5 21.796875 66.546875 
Q 19.921875 64.59375 19.921875 59.515625 
L 19.921875 54.6875 
L 34.71875 54.6875 
L 34.71875 47.703125 
L 19.921875 47.703125 
L 19.921875 0 
L 10.890625 0 
L 10.890625 47.703125 
L 2.296875 47.703125 
L 2.296875 54.6875 
L 10.890625 54.6875 
L 10.890625 58.5 
Q 10.890625 67.625 15.140625 71.796875 
Q 19.390625 75.984375 28.609375 75.984375 
z
" id="DejaVuSans-66"/>
       <path d="M 2.984375 54.6875 
L 12.5 54.6875 
L 29.59375 8.796875 
L 46.6875 54.6875 
L 56.203125 54.6875 
L 35.6875 0 
L 23.484375 0 
z
" id="DejaVuSans-76"/>
      </defs>
      <g transform="translate(288.837699 683.390437)scale(0.1 -0.1)">
       <use xlink:href="#DejaVuSans-64"/>
       <use x="63.476562" xlink:href="#DejaVuSans-65"/>
       <use x="125" xlink:href="#DejaVuSans-66"/>
       <use x="160.205078" xlink:href="#DejaVuSans-65"/>
       <use x="221.728516" xlink:href="#DejaVuSans-6e"/>
       <use x="285.107422" xlink:href="#DejaVuSans-73"/>
       <use x="337.207031" xlink:href="#DejaVuSans-69"/>
       <use x="364.990234" xlink:href="#DejaVuSans-76"/>
       <use x="424.169922" xlink:href="#DejaVuSans-65"/>
      </g>
      <!-- Aerials -->
      <g transform="translate(296.125199 694.58825)scale(0.1 -0.1)">
       <use xlink:href="#DejaVuSans-41"/>
       <use x="68.392578" xlink:href="#DejaVuSans-65"/>
       <use x="129.916016" xlink:href="#DejaVuSans-72"/>
       <use x="171.029297" xlink:href="#DejaVuSans-69"/>
       <use x="198.8125" xlink:href="#DejaVuSans-61"/>
       <use x="260.091797" xlink:href="#DejaVuSans-6c"/>
       <use x="287.875" xlink:href="#DejaVuSans-73"/>
      </g>
     </g>
    </g>
    <g id="xtick_7">
     <g id="line2d_7">
      <g>
       <use style="stroke:#000000;stroke-width:0.8;" x="355.952727" xlink:href="#m9200325ad7" y="668.792"/>
      </g>
     </g>
     <g id="text_7">
      <!-- dispossessed -->
      <defs>
       <path d="M 18.109375 8.203125 
L 18.109375 -20.796875 
L 9.078125 -20.796875 
L 9.078125 54.6875 
L 18.109375 54.6875 
L 18.109375 46.390625 
Q 20.953125 51.265625 25.265625 53.625 
Q 29.59375 56 35.59375 56 
Q 45.5625 56 51.78125 48.09375 
Q 58.015625 40.1875 58.015625 27.296875 
Q 58.015625 14.40625 51.78125 6.484375 
Q 45.5625 -1.421875 35.59375 -1.421875 
Q 29.59375 -1.421875 25.265625 0.953125 
Q 20.953125 3.328125 18.109375 8.203125 
z
M 48.6875 27.296875 
Q 48.6875 37.203125 44.609375 42.84375 
Q 40.53125 48.484375 33.40625 48.484375 
Q 26.265625 48.484375 22.1875 42.84375 
Q 18.109375 37.203125 18.109375 27.296875 
Q 18.109375 17.390625 22.1875 11.75 
Q 26.265625 6.109375 33.40625 6.109375 
Q 40.53125 6.109375 44.609375 11.75 
Q 48.6875 17.390625 48.6875 27.296875 
z
" id="DejaVuSans-70"/>
      </defs>
      <g transform="translate(322.805071 683.390437)scale(0.1 -0.1)">
       <use xlink:href="#DejaVuSans-64"/>
       <use x="63.476562" xlink:href="#DejaVuSans-69"/>
       <use x="91.259766" xlink:href="#DejaVuSans-73"/>
       <use x="143.359375" xlink:href="#DejaVuSans-70"/>
       <use x="206.835938" xlink:href="#DejaVuSans-6f"/>
       <use x="268.017578" xlink:href="#DejaVuSans-73"/>
       <use x="320.117188" xlink:href="#DejaVuSans-73"/>
       <use x="372.216797" xlink:href="#DejaVuSans-65"/>
       <use x="433.740234" xlink:href="#DejaVuSans-73"/>
       <use x="485.839844" xlink:href="#DejaVuSans-73"/>
       <use x="537.939453" xlink:href="#DejaVuSans-65"/>
       <use x="599.462891" xlink:href="#DejaVuSans-64"/>
      </g>
     </g>
    </g>
    <g id="xtick_8">
     <g id="line2d_8">
      <g>
       <use style="stroke:#000000;stroke-width:0.8;" x="398.781818" xlink:href="#m9200325ad7" y="668.792"/>
      </g>
     </g>
     <g id="text_8">
      <!-- dribbled -->
      <defs>
       <path d="M 48.6875 27.296875 
Q 48.6875 37.203125 44.609375 42.84375 
Q 40.53125 48.484375 33.40625 48.484375 
Q 26.265625 48.484375 22.1875 42.84375 
Q 18.109375 37.203125 18.109375 27.296875 
Q 18.109375 17.390625 22.1875 11.75 
Q 26.265625 6.109375 33.40625 6.109375 
Q 40.53125 6.109375 44.609375 11.75 
Q 48.6875 17.390625 48.6875 27.296875 
z
M 18.109375 46.390625 
Q 20.953125 51.265625 25.265625 53.625 
Q 29.59375 56 35.59375 56 
Q 45.5625 56 51.78125 48.09375 
Q 58.015625 40.1875 58.015625 27.296875 
Q 58.015625 14.40625 51.78125 6.484375 
Q 45.5625 -1.421875 35.59375 -1.421875 
Q 29.59375 -1.421875 25.265625 0.953125 
Q 20.953125 3.328125 18.109375 8.203125 
L 18.109375 0 
L 9.078125 0 
L 9.078125 75.984375 
L 18.109375 75.984375 
z
" id="DejaVuSans-62"/>
      </defs>
      <g transform="translate(378.174787 683.390437)scale(0.1 -0.1)">
       <use xlink:href="#DejaVuSans-64"/>
       <use x="63.476562" xlink:href="#DejaVuSans-72"/>
       <use x="104.589844" xlink:href="#DejaVuSans-69"/>
       <use x="132.373047" xlink:href="#DejaVuSans-62"/>
       <use x="195.849609" xlink:href="#DejaVuSans-62"/>
       <use x="259.326172" xlink:href="#DejaVuSans-6c"/>
       <use x="287.109375" xlink:href="#DejaVuSans-65"/>
       <use x="348.632812" xlink:href="#DejaVuSans-64"/>
      </g>
      <!-- Past -->
      <defs>
       <path d="M 19.671875 64.796875 
L 19.671875 37.40625 
L 32.078125 37.40625 
Q 38.96875 37.40625 42.71875 40.96875 
Q 46.484375 44.53125 46.484375 51.125 
Q 46.484375 57.671875 42.71875 61.234375 
Q 38.96875 64.796875 32.078125 64.796875 
z
M 9.8125 72.90625 
L 32.078125 72.90625 
Q 44.34375 72.90625 50.609375 67.359375 
Q 56.890625 61.8125 56.890625 51.125 
Q 56.890625 40.328125 50.609375 34.8125 
Q 44.34375 29.296875 32.078125 29.296875 
L 19.671875 29.296875 
L 19.671875 0 
L 9.8125 0 
z
" id="DejaVuSans-50"/>
      </defs>
      <g transform="translate(388.141193 694.58825)scale(0.1 -0.1)">
       <use xlink:href="#DejaVuSans-50"/>
       <use x="60.240234" xlink:href="#DejaVuSans-61"/>
       <use x="121.519531" xlink:href="#DejaVuSans-73"/>
       <use x="173.619141" xlink:href="#DejaVuSans-74"/>
      </g>
     </g>
    </g>
    <g id="xtick_9">
     <g id="line2d_9">
      <g>
       <use style="stroke:#000000;stroke-width:0.8;" x="441.610909" xlink:href="#m9200325ad7" y="668.792"/>
      </g>
     </g>
     <g id="text_9">
      <!-- dribbles -->
      <g transform="translate(421.573409 683.390437)scale(0.1 -0.1)">
       <use xlink:href="#DejaVuSans-64"/>
       <use x="63.476562" xlink:href="#DejaVuSans-72"/>
       <use x="104.589844" xlink:href="#DejaVuSans-69"/>
       <use x="132.373047" xlink:href="#DejaVuSans-62"/>
       <use x="195.849609" xlink:href="#DejaVuSans-62"/>
       <use x="259.326172" xlink:href="#DejaVuSans-6c"/>
       <use x="287.109375" xlink:href="#DejaVuSans-65"/>
       <use x="348.632812" xlink:href="#DejaVuSans-73"/>
      </g>
      <!-- Attempted -->
      <defs>
       <path d="M 52 44.1875 
Q 55.375 50.25 60.0625 53.125 
Q 64.75 56 71.09375 56 
Q 79.640625 56 84.28125 50.015625 
Q 88.921875 44.046875 88.921875 33.015625 
L 88.921875 0 
L 79.890625 0 
L 79.890625 32.71875 
Q 79.890625 40.578125 77.09375 44.375 
Q 74.3125 48.1875 68.609375 48.1875 
Q 61.625 48.1875 57.5625 43.546875 
Q 53.515625 38.921875 53.515625 30.90625 
L 53.515625 0 
L 44.484375 0 
L 44.484375 32.71875 
Q 44.484375 40.625 41.703125 44.40625 
Q 38.921875 48.1875 33.109375 48.1875 
Q 26.21875 48.1875 22.15625 43.53125 
Q 18.109375 38.875 18.109375 30.90625 
L 18.109375 0 
L 9.078125 0 
L 9.078125 54.6875 
L 18.109375 54.6875 
L 18.109375 46.1875 
Q 21.1875 51.21875 25.484375 53.609375 
Q 29.78125 56 35.6875 56 
Q 41.65625 56 45.828125 52.96875 
Q 50 49.953125 52 44.1875 
z
" id="DejaVuSans-6d"/>
      </defs>
      <g transform="translate(414.939034 694.58825)scale(0.1 -0.1)">
       <use xlink:href="#DejaVuSans-41"/>
       <use x="68.392578" xlink:href="#DejaVuSans-74"/>
       <use x="107.601562" xlink:href="#DejaVuSans-74"/>
       <use x="146.810547" xlink:href="#DejaVuSans-65"/>
       <use x="208.333984" xlink:href="#DejaVuSans-6d"/>
       <use x="305.746094" xlink:href="#DejaVuSans-70"/>
       <use x="369.222656" xlink:href="#DejaVuSans-74"/>
       <use x="408.431641" xlink:href="#DejaVuSans-65"/>
       <use x="469.955078" xlink:href="#DejaVuSans-64"/>
      </g>
     </g>
    </g>
    <g id="xtick_10">
     <g id="line2d_10">
      <g>
       <use style="stroke:#000000;stroke-width:0.8;" x="484.44" xlink:href="#m9200325ad7" y="668.792"/>
      </g>
     </g>
     <g id="text_10">
      <!-- dribbles -->
      <g transform="translate(464.4025 683.390437)scale(0.1 -0.1)">
       <use xlink:href="#DejaVuSans-64"/>
       <use x="63.476562" xlink:href="#DejaVuSans-72"/>
       <use x="104.589844" xlink:href="#DejaVuSans-69"/>
       <use x="132.373047" xlink:href="#DejaVuSans-62"/>
       <use x="195.849609" xlink:href="#DejaVuSans-62"/>
       <use x="259.326172" xlink:href="#DejaVuSans-6c"/>
       <use x="287.109375" xlink:href="#DejaVuSans-65"/>
       <use x="348.632812" xlink:href="#DejaVuSans-73"/>
      </g>
      <!-- Lost -->
      <defs>
       <path d="M 9.8125 72.90625 
L 19.671875 72.90625 
L 19.671875 8.296875 
L 55.171875 8.296875 
L 55.171875 0 
L 9.8125 0 
z
" id="DejaVuSans-4c"/>
      </defs>
      <g transform="translate(474.030625 694.58825)scale(0.1 -0.1)">
       <use xlink:href="#DejaVuSans-4c"/>
       <use x="55.697266" xlink:href="#DejaVuSans-6f"/>
       <use x="116.878906" xlink:href="#DejaVuSans-73"/>
       <use x="168.978516" xlink:href="#DejaVuSans-74"/>
      </g>
     </g>
    </g>
    <g id="xtick_11">
     <g id="line2d_11">
      <g>
       <use style="stroke:#000000;stroke-width:0.8;" x="527.269091" xlink:href="#m9200325ad7" y="668.792"/>
      </g>
     </g>
     <g id="text_11">
      <!-- dribbles -->
      <g transform="translate(507.231591 683.390437)scale(0.1 -0.1)">
       <use xlink:href="#DejaVuSans-64"/>
       <use x="63.476562" xlink:href="#DejaVuSans-72"/>
       <use x="104.589844" xlink:href="#DejaVuSans-69"/>
       <use x="132.373047" xlink:href="#DejaVuSans-62"/>
       <use x="195.849609" xlink:href="#DejaVuSans-62"/>
       <use x="259.326172" xlink:href="#DejaVuSans-6c"/>
       <use x="287.109375" xlink:href="#DejaVuSans-65"/>
       <use x="348.632812" xlink:href="#DejaVuSans-73"/>
      </g>
      <!-- Won -->
      <g transform="translate(516.101122 694.58825)scale(0.1 -0.1)">
       <use xlink:href="#DejaVuSans-57"/>
       <use x="98.798828" xlink:href="#DejaVuSans-6f"/>
       <use x="159.980469" xlink:href="#DejaVuSans-6e"/>
      </g>
     </g>
    </g>
    <g id="xtick_12">
     <g id="line2d_12">
      <g>
       <use style="stroke:#000000;stroke-width:0.8;" x="570.098182" xlink:href="#m9200325ad7" y="668.792"/>
      </g>
     </g>
     <g id="text_12">
      <!-- errors -->
      <g transform="translate(555.193494 683.390437)scale(0.1 -0.1)">
       <use xlink:href="#DejaVuSans-65"/>
       <use x="61.523438" xlink:href="#DejaVuSans-72"/>
       <use x="102.621094" xlink:href="#DejaVuSans-72"/>
       <use x="143.703125" xlink:href="#DejaVuSans-6f"/>
       <use x="204.884766" xlink:href="#DejaVuSans-72"/>
       <use x="245.998047" xlink:href="#DejaVuSans-73"/>
      </g>
      <!-- Count -->
      <defs>
       <path d="M 64.40625 67.28125 
L 64.40625 56.890625 
Q 59.421875 61.53125 53.78125 63.8125 
Q 48.140625 66.109375 41.796875 66.109375 
Q 29.296875 66.109375 22.65625 58.46875 
Q 16.015625 50.828125 16.015625 36.375 
Q 16.015625 21.96875 22.65625 14.328125 
Q 29.296875 6.6875 41.796875 6.6875 
Q 48.140625 6.6875 53.78125 8.984375 
Q 59.421875 11.28125 64.40625 15.921875 
L 64.40625 5.609375 
Q 59.234375 2.09375 53.4375 0.328125 
Q 47.65625 -1.421875 41.21875 -1.421875 
Q 24.65625 -1.421875 15.125 8.703125 
Q 5.609375 18.84375 5.609375 36.375 
Q 5.609375 53.953125 15.125 64.078125 
Q 24.65625 74.21875 41.21875 74.21875 
Q 47.75 74.21875 53.53125 72.484375 
Q 59.328125 70.75 64.40625 67.28125 
z
" id="DejaVuSans-43"/>
      </defs>
      <g transform="translate(555.249744 694.58825)scale(0.1 -0.1)">
       <use xlink:href="#DejaVuSans-43"/>
       <use x="69.824219" xlink:href="#DejaVuSans-6f"/>
       <use x="131.005859" xlink:href="#DejaVuSans-75"/>
       <use x="194.384766" xlink:href="#DejaVuSans-6e"/>
       <use x="257.763672" xlink:href="#DejaVuSans-74"/>
      </g>
     </g>
    </g>
    <g id="xtick_13">
     <g id="line2d_13">
      <g>
       <use style="stroke:#000000;stroke-width:0.8;" x="612.927273" xlink:href="#m9200325ad7" y="668.792"/>
      </g>
     </g>
     <g id="text_13">
      <!-- fouls -->
      <g transform="translate(600.945241 683.390437)scale(0.1 -0.1)">
       <use xlink:href="#DejaVuSans-66"/>
       <use x="35.205078" xlink:href="#DejaVuSans-6f"/>
       <use x="96.386719" xlink:href="#DejaVuSans-75"/>
       <use x="159.765625" xlink:href="#DejaVuSans-6c"/>
       <use x="187.548828" xlink:href="#DejaVuSans-73"/>
      </g>
      <!-- Commited -->
      <g transform="translate(587.035866 694.58825)scale(0.1 -0.1)">
       <use xlink:href="#DejaVuSans-43"/>
       <use x="69.824219" xlink:href="#DejaVuSans-6f"/>
       <use x="131.005859" xlink:href="#DejaVuSans-6d"/>
       <use x="228.417969" xlink:href="#DejaVuSans-6d"/>
       <use x="325.830078" xlink:href="#DejaVuSans-69"/>
       <use x="353.613281" xlink:href="#DejaVuSans-74"/>
       <use x="392.822266" xlink:href="#DejaVuSans-65"/>
       <use x="454.345703" xlink:href="#DejaVuSans-64"/>
      </g>
     </g>
    </g>
    <g id="xtick_14">
     <g id="line2d_14">
      <g>
       <use style="stroke:#000000;stroke-width:0.8;" x="655.756364" xlink:href="#m9200325ad7" y="668.792"/>
      </g>
     </g>
     <g id="text_14">
      <!-- interceptions -->
      <g transform="translate(622.925895 683.390437)scale(0.1 -0.1)">
       <use xlink:href="#DejaVuSans-69"/>
       <use x="27.783203" xlink:href="#DejaVuSans-6e"/>
       <use x="91.162109" xlink:href="#DejaVuSans-74"/>
       <use x="130.371094" xlink:href="#DejaVuSans-65"/>
       <use x="191.894531" xlink:href="#DejaVuSans-72"/>
       <use x="232.976562" xlink:href="#DejaVuSans-63"/>
       <use x="287.957031" xlink:href="#DejaVuSans-65"/>
       <use x="349.480469" xlink:href="#DejaVuSans-70"/>
       <use x="412.957031" xlink:href="#DejaVuSans-74"/>
       <use x="452.166016" xlink:href="#DejaVuSans-69"/>
       <use x="479.949219" xlink:href="#DejaVuSans-6f"/>
       <use x="541.130859" xlink:href="#DejaVuSans-6e"/>
       <use x="604.509766" xlink:href="#DejaVuSans-73"/>
      </g>
     </g>
    </g>
    <g id="xtick_15">
     <g id="line2d_15">
      <g>
       <use style="stroke:#000000;stroke-width:0.8;" x="698.585455" xlink:href="#m9200325ad7" y="668.792"/>
      </g>
     </g>
     <g id="text_15">
      <!-- offensive -->
      <g transform="translate(675.730767 683.390437)scale(0.1 -0.1)">
       <use xlink:href="#DejaVuSans-6f"/>
       <use x="61.181641" xlink:href="#DejaVuSans-66"/>
       <use x="96.386719" xlink:href="#DejaVuSans-66"/>
       <use x="131.591797" xlink:href="#DejaVuSans-65"/>
       <use x="193.115234" xlink:href="#DejaVuSans-6e"/>
       <use x="256.494141" xlink:href="#DejaVuSans-73"/>
       <use x="308.59375" xlink:href="#DejaVuSans-69"/>
       <use x="336.376953" xlink:href="#DejaVuSans-76"/>
       <use x="395.556641" xlink:href="#DejaVuSans-65"/>
      </g>
      <!-- Aerials -->
      <g transform="translate(681.587017 694.58825)scale(0.1 -0.1)">
       <use xlink:href="#DejaVuSans-41"/>
       <use x="68.392578" xlink:href="#DejaVuSans-65"/>
       <use x="129.916016" xlink:href="#DejaVuSans-72"/>
       <use x="171.029297" xlink:href="#DejaVuSans-69"/>
       <use x="198.8125" xlink:href="#DejaVuSans-61"/>
       <use x="260.091797" xlink:href="#DejaVuSans-6c"/>
       <use x="287.875" xlink:href="#DejaVuSans-73"/>
      </g>
     </g>
    </g>
    <g id="xtick_16">
     <g id="line2d_16">
      <g>
       <use style="stroke:#000000;stroke-width:0.8;" x="741.414545" xlink:href="#m9200325ad7" y="668.792"/>
      </g>
     </g>
     <g id="text_16">
      <!-- offsides -->
      <g transform="translate(721.985639 683.390437)scale(0.1 -0.1)">
       <use xlink:href="#DejaVuSans-6f"/>
       <use x="61.181641" xlink:href="#DejaVuSans-66"/>
       <use x="96.386719" xlink:href="#DejaVuSans-66"/>
       <use x="131.591797" xlink:href="#DejaVuSans-73"/>
       <use x="183.691406" xlink:href="#DejaVuSans-69"/>
       <use x="211.474609" xlink:href="#DejaVuSans-64"/>
       <use x="274.951172" xlink:href="#DejaVuSans-65"/>
       <use x="336.474609" xlink:href="#DejaVuSans-73"/>
      </g>
      <!-- Caught -->
      <defs>
       <path d="M 45.40625 27.984375 
Q 45.40625 37.75 41.375 43.109375 
Q 37.359375 48.484375 30.078125 48.484375 
Q 22.859375 48.484375 18.828125 43.109375 
Q 14.796875 37.75 14.796875 27.984375 
Q 14.796875 18.265625 18.828125 12.890625 
Q 22.859375 7.515625 30.078125 7.515625 
Q 37.359375 7.515625 41.375 12.890625 
Q 45.40625 18.265625 45.40625 27.984375 
z
M 54.390625 6.78125 
Q 54.390625 -7.171875 48.1875 -13.984375 
Q 42 -20.796875 29.203125 -20.796875 
Q 24.46875 -20.796875 20.265625 -20.09375 
Q 16.0625 -19.390625 12.109375 -17.921875 
L 12.109375 -9.1875 
Q 16.0625 -11.328125 19.921875 -12.34375 
Q 23.78125 -13.375 27.78125 -13.375 
Q 36.625 -13.375 41.015625 -8.765625 
Q 45.40625 -4.15625 45.40625 5.171875 
L 45.40625 9.625 
Q 42.625 4.78125 38.28125 2.390625 
Q 33.9375 0 27.875 0 
Q 17.828125 0 11.671875 7.65625 
Q 5.515625 15.328125 5.515625 27.984375 
Q 5.515625 40.671875 11.671875 48.328125 
Q 17.828125 56 27.875 56 
Q 33.9375 56 38.28125 53.609375 
Q 42.625 51.21875 45.40625 46.390625 
L 45.40625 54.6875 
L 54.390625 54.6875 
z
" id="DejaVuSans-67"/>
       <path d="M 54.890625 33.015625 
L 54.890625 0 
L 45.90625 0 
L 45.90625 32.71875 
Q 45.90625 40.484375 42.875 44.328125 
Q 39.84375 48.1875 33.796875 48.1875 
Q 26.515625 48.1875 22.3125 43.546875 
Q 18.109375 38.921875 18.109375 30.90625 
L 18.109375 0 
L 9.078125 0 
L 9.078125 75.984375 
L 18.109375 75.984375 
L 18.109375 46.1875 
Q 21.34375 51.125 25.703125 53.5625 
Q 30.078125 56 35.796875 56 
Q 45.21875 56 50.046875 50.171875 
Q 54.890625 44.34375 54.890625 33.015625 
z
" id="DejaVuSans-68"/>
      </defs>
      <g transform="translate(723.387202 694.58825)scale(0.1 -0.1)">
       <use xlink:href="#DejaVuSans-43"/>
       <use x="69.824219" xlink:href="#DejaVuSans-61"/>
       <use x="131.103516" xlink:href="#DejaVuSans-75"/>
       <use x="194.482422" xlink:href="#DejaVuSans-67"/>
       <use x="257.958984" xlink:href="#DejaVuSans-68"/>
       <use x="321.337891" xlink:href="#DejaVuSans-74"/>
      </g>
     </g>
    </g>
    <g id="xtick_17">
     <g id="line2d_17">
      <g>
       <use style="stroke:#000000;stroke-width:0.8;" x="784.243636" xlink:href="#m9200325ad7" y="668.792"/>
      </g>
     </g>
     <g id="text_17">
      <!-- passes -->
      <g transform="translate(767.11473 683.390437)scale(0.1 -0.1)">
       <use xlink:href="#DejaVuSans-70"/>
       <use x="63.476562" xlink:href="#DejaVuSans-61"/>
       <use x="124.755859" xlink:href="#DejaVuSans-73"/>
       <use x="176.855469" xlink:href="#DejaVuSans-73"/>
       <use x="228.955078" xlink:href="#DejaVuSans-65"/>
       <use x="290.478516" xlink:href="#DejaVuSans-73"/>
      </g>
      <!-- Accurate -->
      <g transform="translate(762.000668 694.58825)scale(0.1 -0.1)">
       <use xlink:href="#DejaVuSans-41"/>
       <use x="68.392578" xlink:href="#DejaVuSans-63"/>
       <use x="123.373047" xlink:href="#DejaVuSans-63"/>
       <use x="178.353516" xlink:href="#DejaVuSans-75"/>
       <use x="241.732422" xlink:href="#DejaVuSans-72"/>
       <use x="282.845703" xlink:href="#DejaVuSans-61"/>
       <use x="344.125" xlink:href="#DejaVuSans-74"/>
       <use x="383.333984" xlink:href="#DejaVuSans-65"/>
      </g>
     </g>
    </g>
    <g id="xtick_18">
     <g id="line2d_18">
      <g>
       <use style="stroke:#000000;stroke-width:0.8;" x="827.072727" xlink:href="#m9200325ad7" y="668.792"/>
      </g>
     </g>
     <g id="text_18">
      <!-- passes -->
      <g transform="translate(809.943821 683.390437)scale(0.1 -0.1)">
       <use xlink:href="#DejaVuSans-70"/>
       <use x="63.476562" xlink:href="#DejaVuSans-61"/>
       <use x="124.755859" xlink:href="#DejaVuSans-73"/>
       <use x="176.855469" xlink:href="#DejaVuSans-73"/>
       <use x="228.955078" xlink:href="#DejaVuSans-65"/>
       <use x="290.478516" xlink:href="#DejaVuSans-73"/>
      </g>
      <!-- Key -->
      <defs>
       <path d="M 9.8125 72.90625 
L 19.671875 72.90625 
L 19.671875 42.09375 
L 52.390625 72.90625 
L 65.09375 72.90625 
L 28.90625 38.921875 
L 67.671875 0 
L 54.6875 0 
L 19.671875 35.109375 
L 19.671875 0 
L 9.8125 0 
z
" id="DejaVuSans-4b"/>
       <path d="M 32.171875 -5.078125 
Q 28.375 -14.84375 24.75 -17.8125 
Q 21.140625 -20.796875 15.09375 -20.796875 
L 7.90625 -20.796875 
L 7.90625 -13.28125 
L 13.1875 -13.28125 
Q 16.890625 -13.28125 18.9375 -11.515625 
Q 21 -9.765625 23.484375 -3.21875 
L 25.09375 0.875 
L 2.984375 54.6875 
L 12.5 54.6875 
L 29.59375 11.921875 
L 46.6875 54.6875 
L 56.203125 54.6875 
z
" id="DejaVuSans-79"/>
      </defs>
      <g transform="translate(817.76179 694.58825)scale(0.1 -0.1)">
       <use xlink:href="#DejaVuSans-4b"/>
       <use x="65.498047" xlink:href="#DejaVuSans-65"/>
       <use x="127.021484" xlink:href="#DejaVuSans-79"/>
      </g>
     </g>
    </g>
    <g id="xtick_19">
     <g id="line2d_19">
      <g>
       <use style="stroke:#000000;stroke-width:0.8;" x="869.901818" xlink:href="#m9200325ad7" y="668.792"/>
      </g>
     </g>
     <g id="text_19">
      <!-- passes -->
      <g transform="translate(852.772912 683.390437)scale(0.1 -0.1)">
       <use xlink:href="#DejaVuSans-70"/>
       <use x="63.476562" xlink:href="#DejaVuSans-61"/>
       <use x="124.755859" xlink:href="#DejaVuSans-73"/>
       <use x="176.855469" xlink:href="#DejaVuSans-73"/>
       <use x="228.955078" xlink:href="#DejaVuSans-65"/>
       <use x="290.478516" xlink:href="#DejaVuSans-73"/>
      </g>
      <!-- Total -->
      <g transform="translate(857.388537 694.58825)scale(0.1 -0.1)">
       <use xlink:href="#DejaVuSans-54"/>
       <use x="60.818359" xlink:href="#DejaVuSans-6f"/>
       <use x="122" xlink:href="#DejaVuSans-74"/>
       <use x="161.208984" xlink:href="#DejaVuSans-61"/>
       <use x="222.488281" xlink:href="#DejaVuSans-6c"/>
      </g>
     </g>
    </g>
    <g id="xtick_20">
     <g id="line2d_20">
      <g>
       <use style="stroke:#000000;stroke-width:0.8;" x="912.730909" xlink:href="#m9200325ad7" y="668.792"/>
      </g>
     </g>
     <g id="text_20">
      <!-- possession -->
      <g transform="translate(885.384815 683.390437)scale(0.1 -0.1)">
       <use xlink:href="#DejaVuSans-70"/>
       <use x="63.476562" xlink:href="#DejaVuSans-6f"/>
       <use x="124.658203" xlink:href="#DejaVuSans-73"/>
       <use x="176.757812" xlink:href="#DejaVuSans-73"/>
       <use x="228.857422" xlink:href="#DejaVuSans-65"/>
       <use x="290.380859" xlink:href="#DejaVuSans-73"/>
       <use x="342.480469" xlink:href="#DejaVuSans-73"/>
       <use x="394.580078" xlink:href="#DejaVuSans-69"/>
       <use x="422.363281" xlink:href="#DejaVuSans-6f"/>
       <use x="483.544922" xlink:href="#DejaVuSans-6e"/>
      </g>
     </g>
    </g>
    <g id="xtick_21">
     <g id="line2d_21">
      <g>
       <use style="stroke:#000000;stroke-width:0.8;" x="955.56" xlink:href="#m9200325ad7" y="668.792"/>
      </g>
     </g>
     <g id="text_21">
      <!-- shots -->
      <g transform="translate(942.162344 683.390437)scale(0.1 -0.1)">
       <use xlink:href="#DejaVuSans-73"/>
       <use x="52.099609" xlink:href="#DejaVuSans-68"/>
       <use x="115.478516" xlink:href="#DejaVuSans-6f"/>
       <use x="176.660156" xlink:href="#DejaVuSans-74"/>
       <use x="215.869141" xlink:href="#DejaVuSans-73"/>
      </g>
      <!-- Blocked -->
      <defs>
       <path d="M 19.671875 34.8125 
L 19.671875 8.109375 
L 35.5 8.109375 
Q 43.453125 8.109375 47.28125 11.40625 
Q 51.125 14.703125 51.125 21.484375 
Q 51.125 28.328125 47.28125 31.5625 
Q 43.453125 34.8125 35.5 34.8125 
z
M 19.671875 64.796875 
L 19.671875 42.828125 
L 34.28125 42.828125 
Q 41.5 42.828125 45.03125 45.53125 
Q 48.578125 48.25 48.578125 53.8125 
Q 48.578125 59.328125 45.03125 62.0625 
Q 41.5 64.796875 34.28125 64.796875 
z
M 9.8125 72.90625 
L 35.015625 72.90625 
Q 46.296875 72.90625 52.390625 68.21875 
Q 58.5 63.53125 58.5 54.890625 
Q 58.5 48.1875 55.375 44.234375 
Q 52.25 40.28125 46.1875 39.3125 
Q 53.46875 37.75 57.5 32.78125 
Q 61.53125 27.828125 61.53125 20.40625 
Q 61.53125 10.640625 54.890625 5.3125 
Q 48.25 0 35.984375 0 
L 9.8125 0 
z
" id="DejaVuSans-42"/>
       <path d="M 9.078125 75.984375 
L 18.109375 75.984375 
L 18.109375 31.109375 
L 44.921875 54.6875 
L 56.390625 54.6875 
L 27.390625 29.109375 
L 57.625 0 
L 45.90625 0 
L 18.109375 26.703125 
L 18.109375 0 
L 9.078125 0 
z
" id="DejaVuSans-6b"/>
      </defs>
      <g transform="translate(935.788125 694.58825)scale(0.1 -0.1)">
       <use xlink:href="#DejaVuSans-42"/>
       <use x="68.603516" xlink:href="#DejaVuSans-6c"/>
       <use x="96.386719" xlink:href="#DejaVuSans-6f"/>
       <use x="157.568359" xlink:href="#DejaVuSans-63"/>
       <use x="212.548828" xlink:href="#DejaVuSans-6b"/>
       <use x="270.412109" xlink:href="#DejaVuSans-65"/>
       <use x="331.935547" xlink:href="#DejaVuSans-64"/>
      </g>
     </g>
    </g>
    <g id="xtick_22">
     <g id="line2d_22">
      <g>
       <use style="stroke:#000000;stroke-width:0.8;" x="998.389091" xlink:href="#m9200325ad7" y="668.792"/>
      </g>
     </g>
     <g id="text_22">
      <!-- shots -->
      <g transform="translate(984.991435 683.390437)scale(0.1 -0.1)">
       <use xlink:href="#DejaVuSans-73"/>
       <use x="52.099609" xlink:href="#DejaVuSans-68"/>
       <use x="115.478516" xlink:href="#DejaVuSans-6f"/>
       <use x="176.660156" xlink:href="#DejaVuSans-74"/>
       <use x="215.869141" xlink:href="#DejaVuSans-73"/>
      </g>
      <!-- Off -->
      <defs>
       <path d="M 39.40625 66.21875 
Q 28.65625 66.21875 22.328125 58.203125 
Q 16.015625 50.203125 16.015625 36.375 
Q 16.015625 22.609375 22.328125 14.59375 
Q 28.65625 6.59375 39.40625 6.59375 
Q 50.140625 6.59375 56.421875 14.59375 
Q 62.703125 22.609375 62.703125 36.375 
Q 62.703125 50.203125 56.421875 58.203125 
Q 50.140625 66.21875 39.40625 66.21875 
z
M 39.40625 74.21875 
Q 54.734375 74.21875 63.90625 63.9375 
Q 73.09375 53.65625 73.09375 36.375 
Q 73.09375 19.140625 63.90625 8.859375 
Q 54.734375 -1.421875 39.40625 -1.421875 
Q 24.03125 -1.421875 14.8125 8.828125 
Q 5.609375 19.09375 5.609375 36.375 
Q 5.609375 53.65625 14.8125 63.9375 
Q 24.03125 74.21875 39.40625 74.21875 
z
" id="DejaVuSans-4f"/>
      </defs>
      <g transform="translate(990.932841 694.58825)scale(0.1 -0.1)">
       <use xlink:href="#DejaVuSans-4f"/>
       <use x="78.710938" xlink:href="#DejaVuSans-66"/>
       <use x="113.916016" xlink:href="#DejaVuSans-66"/>
      </g>
      <!-- Target -->
      <g transform="translate(982.017997 705.786063)scale(0.1 -0.1)">
       <use xlink:href="#DejaVuSans-54"/>
       <use x="60.833984" xlink:href="#DejaVuSans-61"/>
       <use x="122.113281" xlink:href="#DejaVuSans-72"/>
       <use x="163.210938" xlink:href="#DejaVuSans-67"/>
       <use x="226.6875" xlink:href="#DejaVuSans-65"/>
       <use x="288.210938" xlink:href="#DejaVuSans-74"/>
      </g>
     </g>
    </g>
    <g id="xtick_23">
     <g id="line2d_23">
      <g>
       <use style="stroke:#000000;stroke-width:0.8;" x="1041.218182" xlink:href="#m9200325ad7" y="668.792"/>
      </g>
     </g>
     <g id="text_23">
      <!-- shots -->
      <g transform="translate(1027.820526 683.390437)scale(0.1 -0.1)">
       <use xlink:href="#DejaVuSans-73"/>
       <use x="52.099609" xlink:href="#DejaVuSans-68"/>
       <use x="115.478516" xlink:href="#DejaVuSans-6f"/>
       <use x="176.660156" xlink:href="#DejaVuSans-74"/>
       <use x="215.869141" xlink:href="#DejaVuSans-73"/>
      </g>
      <!-- On -->
      <g transform="translate(1034.113494 694.58825)scale(0.1 -0.1)">
       <use xlink:href="#DejaVuSans-4f"/>
       <use x="78.710938" xlink:href="#DejaVuSans-6e"/>
      </g>
      <!-- Target -->
      <g transform="translate(1024.847088 705.786063)scale(0.1 -0.1)">
       <use xlink:href="#DejaVuSans-54"/>
       <use x="60.833984" xlink:href="#DejaVuSans-61"/>
       <use x="122.113281" xlink:href="#DejaVuSans-72"/>
       <use x="163.210938" xlink:href="#DejaVuSans-67"/>
       <use x="226.6875" xlink:href="#DejaVuSans-65"/>
       <use x="288.210938" xlink:href="#DejaVuSans-74"/>
      </g>
     </g>
    </g>
    <g id="xtick_24">
     <g id="line2d_24">
      <g>
       <use style="stroke:#000000;stroke-width:0.8;" x="1084.047273" xlink:href="#m9200325ad7" y="668.792"/>
      </g>
     </g>
     <g id="text_24">
      <!-- shots -->
      <g transform="translate(1070.649616 683.390437)scale(0.1 -0.1)">
       <use xlink:href="#DejaVuSans-73"/>
       <use x="52.099609" xlink:href="#DejaVuSans-68"/>
       <use x="115.478516" xlink:href="#DejaVuSans-6f"/>
       <use x="176.660156" xlink:href="#DejaVuSans-74"/>
       <use x="215.869141" xlink:href="#DejaVuSans-73"/>
      </g>
      <!-- Total -->
      <g transform="translate(1071.533991 694.58825)scale(0.1 -0.1)">
       <use xlink:href="#DejaVuSans-54"/>
       <use x="60.818359" xlink:href="#DejaVuSans-6f"/>
       <use x="122" xlink:href="#DejaVuSans-74"/>
       <use x="161.208984" xlink:href="#DejaVuSans-61"/>
       <use x="222.488281" xlink:href="#DejaVuSans-6c"/>
      </g>
     </g>
    </g>
    <g id="xtick_25">
     <g id="line2d_25">
      <g>
       <use style="stroke:#000000;stroke-width:0.8;" x="1126.876364" xlink:href="#m9200325ad7" y="668.792"/>
      </g>
     </g>
     <g id="text_25">
      <!-- tackle -->
      <g transform="translate(1111.741989 683.390437)scale(0.1 -0.1)">
       <use xlink:href="#DejaVuSans-74"/>
       <use x="39.208984" xlink:href="#DejaVuSans-61"/>
       <use x="100.488281" xlink:href="#DejaVuSans-63"/>
       <use x="155.46875" xlink:href="#DejaVuSans-6b"/>
       <use x="213.378906" xlink:href="#DejaVuSans-6c"/>
       <use x="241.162109" xlink:href="#DejaVuSans-65"/>
      </g>
      <!-- Successful -->
      <defs>
       <path d="M 53.515625 70.515625 
L 53.515625 60.890625 
Q 47.90625 63.578125 42.921875 64.890625 
Q 37.9375 66.21875 33.296875 66.21875 
Q 25.25 66.21875 20.875 63.09375 
Q 16.5 59.96875 16.5 54.203125 
Q 16.5 49.359375 19.40625 46.890625 
Q 22.3125 44.4375 30.421875 42.921875 
L 36.375 41.703125 
Q 47.40625 39.59375 52.65625 34.296875 
Q 57.90625 29 57.90625 20.125 
Q 57.90625 9.515625 50.796875 4.046875 
Q 43.703125 -1.421875 29.984375 -1.421875 
Q 24.8125 -1.421875 18.96875 -0.25 
Q 13.140625 0.921875 6.890625 3.21875 
L 6.890625 13.375 
Q 12.890625 10.015625 18.65625 8.296875 
Q 24.421875 6.59375 29.984375 6.59375 
Q 38.421875 6.59375 43.015625 9.90625 
Q 47.609375 13.234375 47.609375 19.390625 
Q 47.609375 24.75 44.3125 27.78125 
Q 41.015625 30.8125 33.5 32.328125 
L 27.484375 33.5 
Q 16.453125 35.6875 11.515625 40.375 
Q 6.59375 45.0625 6.59375 53.421875 
Q 6.59375 63.09375 13.40625 68.65625 
Q 20.21875 74.21875 32.171875 74.21875 
Q 37.3125 74.21875 42.625 73.28125 
Q 47.953125 72.359375 53.515625 70.515625 
z
" id="DejaVuSans-53"/>
      </defs>
      <g transform="translate(1100.431051 694.58825)scale(0.1 -0.1)">
       <use xlink:href="#DejaVuSans-53"/>
       <use x="63.476562" xlink:href="#DejaVuSans-75"/>
       <use x="126.855469" xlink:href="#DejaVuSans-63"/>
       <use x="181.835938" xlink:href="#DejaVuSans-63"/>
       <use x="236.816406" xlink:href="#DejaVuSans-65"/>
       <use x="298.339844" xlink:href="#DejaVuSans-73"/>
       <use x="350.439453" xlink:href="#DejaVuSans-73"/>
       <use x="402.539062" xlink:href="#DejaVuSans-66"/>
       <use x="437.744141" xlink:href="#DejaVuSans-75"/>
       <use x="501.123047" xlink:href="#DejaVuSans-6c"/>
      </g>
     </g>
    </g>
    <g id="xtick_26">
     <g id="line2d_26">
      <g>
       <use style="stroke:#000000;stroke-width:0.8;" x="1169.705455" xlink:href="#m9200325ad7" y="668.792"/>
      </g>
     </g>
     <g id="text_26">
      <!-- tackle -->
      <g transform="translate(1154.57108 683.390437)scale(0.1 -0.1)">
       <use xlink:href="#DejaVuSans-74"/>
       <use x="39.208984" xlink:href="#DejaVuSans-61"/>
       <use x="100.488281" xlink:href="#DejaVuSans-63"/>
       <use x="155.46875" xlink:href="#DejaVuSans-6b"/>
       <use x="213.378906" xlink:href="#DejaVuSans-6c"/>
       <use x="241.162109" xlink:href="#DejaVuSans-65"/>
      </g>
      <!-- Unsuccesful -->
      <defs>
       <path d="M 8.6875 72.90625 
L 18.609375 72.90625 
L 18.609375 28.609375 
Q 18.609375 16.890625 22.84375 11.734375 
Q 27.09375 6.59375 36.625 6.59375 
Q 46.09375 6.59375 50.34375 11.734375 
Q 54.59375 16.890625 54.59375 28.609375 
L 54.59375 72.90625 
L 64.5 72.90625 
L 64.5 27.390625 
Q 64.5 13.140625 57.4375 5.859375 
Q 50.390625 -1.421875 36.625 -1.421875 
Q 22.796875 -1.421875 15.734375 5.859375 
Q 8.6875 13.140625 8.6875 27.390625 
z
" id="DejaVuSans-55"/>
      </defs>
      <g transform="translate(1139.606236 694.58825)scale(0.1 -0.1)">
       <use xlink:href="#DejaVuSans-55"/>
       <use x="73.193359" xlink:href="#DejaVuSans-6e"/>
       <use x="136.572266" xlink:href="#DejaVuSans-73"/>
       <use x="188.671875" xlink:href="#DejaVuSans-75"/>
       <use x="252.050781" xlink:href="#DejaVuSans-63"/>
       <use x="307.03125" xlink:href="#DejaVuSans-63"/>
       <use x="362.011719" xlink:href="#DejaVuSans-65"/>
       <use x="423.535156" xlink:href="#DejaVuSans-73"/>
       <use x="475.634766" xlink:href="#DejaVuSans-66"/>
       <use x="510.839844" xlink:href="#DejaVuSans-75"/>
       <use x="574.21875" xlink:href="#DejaVuSans-6c"/>
      </g>
     </g>
    </g>
    <g id="xtick_27">
     <g id="line2d_27">
      <g>
       <use style="stroke:#000000;stroke-width:0.8;" x="1212.534545" xlink:href="#m9200325ad7" y="668.792"/>
      </g>
     </g>
     <g id="text_27">
      <!-- tackles -->
      <g transform="translate(1194.795483 683.390437)scale(0.1 -0.1)">
       <use xlink:href="#DejaVuSans-74"/>
       <use x="39.208984" xlink:href="#DejaVuSans-61"/>
       <use x="100.488281" xlink:href="#DejaVuSans-63"/>
       <use x="155.46875" xlink:href="#DejaVuSans-6b"/>
       <use x="213.378906" xlink:href="#DejaVuSans-6c"/>
       <use x="241.162109" xlink:href="#DejaVuSans-65"/>
       <use x="302.685547" xlink:href="#DejaVuSans-73"/>
      </g>
      <!-- Total -->
      <g transform="translate(1200.021264 694.58825)scale(0.1 -0.1)">
       <use xlink:href="#DejaVuSans-54"/>
       <use x="60.818359" xlink:href="#DejaVuSans-6f"/>
       <use x="122" xlink:href="#DejaVuSans-74"/>
       <use x="161.208984" xlink:href="#DejaVuSans-61"/>
       <use x="222.488281" xlink:href="#DejaVuSans-6c"/>
      </g>
     </g>
    </g>
    <g id="xtick_28">
     <g id="line2d_28">
      <g>
       <use style="stroke:#000000;stroke-width:0.8;" x="1255.363636" xlink:href="#m9200325ad7" y="668.792"/>
      </g>
     </g>
     <g id="text_28">
      <!-- throw -->
      <defs>
       <path d="M 4.203125 54.6875 
L 13.1875 54.6875 
L 24.421875 12.015625 
L 35.59375 54.6875 
L 46.1875 54.6875 
L 57.421875 12.015625 
L 68.609375 54.6875 
L 77.59375 54.6875 
L 63.28125 0 
L 52.6875 0 
L 40.921875 44.828125 
L 29.109375 0 
L 18.5 0 
z
" id="DejaVuSans-77"/>
      </defs>
      <g transform="translate(1241.032386 683.390437)scale(0.1 -0.1)">
       <use xlink:href="#DejaVuSans-74"/>
       <use x="39.208984" xlink:href="#DejaVuSans-68"/>
       <use x="102.587891" xlink:href="#DejaVuSans-72"/>
       <use x="143.669922" xlink:href="#DejaVuSans-6f"/>
       <use x="204.851562" xlink:href="#DejaVuSans-77"/>
      </g>
      <!-- Ins -->
      <defs>
       <path d="M 9.8125 72.90625 
L 19.671875 72.90625 
L 19.671875 0 
L 9.8125 0 
z
" id="DejaVuSans-49"/>
      </defs>
      <g transform="translate(1248.115199 694.58825)scale(0.1 -0.1)">
       <use xlink:href="#DejaVuSans-49"/>
       <use x="29.492188" xlink:href="#DejaVuSans-6e"/>
       <use x="92.871094" xlink:href="#DejaVuSans-73"/>
      </g>
      <!-- Accurate -->
      <g transform="translate(1233.120668 705.786063)scale(0.1 -0.1)">
       <use xlink:href="#DejaVuSans-41"/>
       <use x="68.392578" xlink:href="#DejaVuSans-63"/>
       <use x="123.373047" xlink:href="#DejaVuSans-63"/>
       <use x="178.353516" xlink:href="#DejaVuSans-75"/>
       <use x="241.732422" xlink:href="#DejaVuSans-72"/>
       <use x="282.845703" xlink:href="#DejaVuSans-61"/>
       <use x="344.125" xlink:href="#DejaVuSans-74"/>
       <use x="383.333984" xlink:href="#DejaVuSans-65"/>
      </g>
     </g>
    </g>
    <g id="xtick_29">
     <g id="line2d_29">
      <g>
       <use style="stroke:#000000;stroke-width:0.8;" x="1298.192727" xlink:href="#m9200325ad7" y="668.792"/>
      </g>
     </g>
     <g id="text_29">
      <!-- throw -->
      <g transform="translate(1283.861477 683.390437)scale(0.1 -0.1)">
       <use xlink:href="#DejaVuSans-74"/>
       <use x="39.208984" xlink:href="#DejaVuSans-68"/>
       <use x="102.587891" xlink:href="#DejaVuSans-72"/>
       <use x="143.669922" xlink:href="#DejaVuSans-6f"/>
       <use x="204.851562" xlink:href="#DejaVuSans-77"/>
      </g>
      <!-- Ins -->
      <g transform="translate(1290.94429 694.58825)scale(0.1 -0.1)">
       <use xlink:href="#DejaVuSans-49"/>
       <use x="29.492188" xlink:href="#DejaVuSans-6e"/>
       <use x="92.871094" xlink:href="#DejaVuSans-73"/>
      </g>
      <!-- Total -->
      <g transform="translate(1285.679446 705.786063)scale(0.1 -0.1)">
       <use xlink:href="#DejaVuSans-54"/>
       <use x="60.818359" xlink:href="#DejaVuSans-6f"/>
       <use x="122" xlink:href="#DejaVuSans-74"/>
       <use x="161.208984" xlink:href="#DejaVuSans-61"/>
       <use x="222.488281" xlink:href="#DejaVuSans-6c"/>
      </g>
     </g>
    </g>
    <g id="xtick_30">
     <g id="line2d_30">
      <g>
       <use style="stroke:#000000;stroke-width:0.8;" x="1341.021818" xlink:href="#m9200325ad7" y="668.792"/>
      </g>
     </g>
     <g id="text_30">
      <!-- touches -->
      <g transform="translate(1321.234318 683.390437)scale(0.1 -0.1)">
       <use xlink:href="#DejaVuSans-74"/>
       <use x="39.208984" xlink:href="#DejaVuSans-6f"/>
       <use x="100.390625" xlink:href="#DejaVuSans-75"/>
       <use x="163.769531" xlink:href="#DejaVuSans-63"/>
       <use x="218.75" xlink:href="#DejaVuSans-68"/>
       <use x="282.128906" xlink:href="#DejaVuSans-65"/>
       <use x="343.652344" xlink:href="#DejaVuSans-73"/>
      </g>
     </g>
    </g>
   </g>
   <g id="matplotlib.axis_2"/>
   <g id="patch_33">
    <path d="M 13.32 668.792 
L 13.32 26.68875 
" style="fill:none;stroke:#000000;stroke-linecap:square;stroke-linejoin:miter;stroke-width:0.8;"/>
   </g>
   <g id="patch_34">
    <path d="M 1426.68 668.792 
L 1426.68 26.68875 
" style="fill:none;stroke:#000000;stroke-linecap:square;stroke-linejoin:miter;stroke-width:0.8;"/>
   </g>
   <g id="patch_35">
    <path d="M 13.32 668.792 
L 1426.68 668.792 
" style="fill:none;stroke:#000000;stroke-linecap:square;stroke-linejoin:miter;stroke-width:0.8;"/>
   </g>
   <g id="patch_36">
    <path d="M 13.32 26.68875 
L 1426.68 26.68875 
" style="fill:none;stroke:#000000;stroke-linecap:square;stroke-linejoin:miter;stroke-width:0.8;"/>
   </g>
   <g id="text_31">
    <!-- component_6 -->
    <defs>
     <path d="M 50.984375 -16.609375 
L 50.984375 -23.578125 
L -0.984375 -23.578125 
L -0.984375 -16.609375 
z
" id="DejaVuSans-5f"/>
     <path d="M 33.015625 40.375 
Q 26.375 40.375 22.484375 35.828125 
Q 18.609375 31.296875 18.609375 23.390625 
Q 18.609375 15.53125 22.484375 10.953125 
Q 26.375 6.390625 33.015625 6.390625 
Q 39.65625 6.390625 43.53125 10.953125 
Q 47.40625 15.53125 47.40625 23.390625 
Q 47.40625 31.296875 43.53125 35.828125 
Q 39.65625 40.375 33.015625 40.375 
z
M 52.59375 71.296875 
L 52.59375 62.3125 
Q 48.875 64.0625 45.09375 64.984375 
Q 41.3125 65.921875 37.59375 65.921875 
Q 27.828125 65.921875 22.671875 59.328125 
Q 17.53125 52.734375 16.796875 39.40625 
Q 19.671875 43.65625 24.015625 45.921875 
Q 28.375 48.1875 33.59375 48.1875 
Q 44.578125 48.1875 50.953125 41.515625 
Q 57.328125 34.859375 57.328125 23.390625 
Q 57.328125 12.15625 50.6875 5.359375 
Q 44.046875 -1.421875 33.015625 -1.421875 
Q 20.359375 -1.421875 13.671875 8.265625 
Q 6.984375 17.96875 6.984375 36.375 
Q 6.984375 53.65625 15.1875 63.9375 
Q 23.390625 74.21875 37.203125 74.21875 
Q 40.921875 74.21875 44.703125 73.484375 
Q 48.484375 72.75 52.59375 71.296875 
z
" id="DejaVuSans-36"/>
    </defs>
    <g transform="translate(679.238438 20.68875)scale(0.12 -0.12)">
     <use xlink:href="#DejaVuSans-63"/>
     <use x="54.980469" xlink:href="#DejaVuSans-6f"/>
     <use x="116.162109" xlink:href="#DejaVuSans-6d"/>
     <use x="213.574219" xlink:href="#DejaVuSans-70"/>
     <use x="277.050781" xlink:href="#DejaVuSans-6f"/>
     <use x="338.232422" xlink:href="#DejaVuSans-6e"/>
     <use x="401.611328" xlink:href="#DejaVuSans-65"/>
     <use x="463.134766" xlink:href="#DejaVuSans-6e"/>
     <use x="526.513672" xlink:href="#DejaVuSans-74"/>
     <use x="565.722656" xlink:href="#DejaVuSans-5f"/>
     <use x="615.722656" xlink:href="#DejaVuSans-36"/>
    </g>
   </g>
  </g>
 </g>
 <defs>
  <clipPath id="pce33f53817">
   <rect height="642.10325" width="1413.36" x="13.32" y="26.68875"/>
  </clipPath>
 </defs>
</svg>
