<?xml version="1.0" encoding="utf-8" standalone="no"?>
<!DOCTYPE svg PUBLIC "-//W3C//DTD SVG 1.1//EN"
  "http://www.w3.org/Graphics/SVG/1.1/DTD/svg11.dtd">
<!-- Created with matplotlib (http://matplotlib.org/) -->
<svg height="576pt" version="1.1" viewBox="0 0 3600 576" width="3600pt" xmlns="http://www.w3.org/2000/svg" xmlns:xlink="http://www.w3.org/1999/xlink">
 <defs>
  <style type="text/css">
*{stroke-linecap:butt;stroke-linejoin:round;}
  </style>
 </defs>
 <g id="figure_1">
  <g id="patch_1">
   <path d="M 0 576 
L 3600 576 
L 3600 0 
L 0 0 
z
" style="fill:#ffffff;"/>
  </g>
  <g id="axes_1">
   <g id="patch_2">
    <path d="M 450 512.64 
L 3240 512.64 
L 3240 69.12 
L 450 69.12 
z
" style="fill:#ffffff;"/>
   </g>
   <g id="patch_3">
    <path clip-path="url(#pec1d3891be)" d="M 504 512.64 
L 576 512.64 
L 576 215.854403 
L 504 215.854403 
z
" style="fill:#ff0000;"/>
   </g>
   <g id="patch_4">
    <path clip-path="url(#pec1d3891be)" d="M 594 512.64 
L 666 512.64 
L 666 302.098585 
L 594 302.098585 
z
" style="fill:#ff0000;"/>
   </g>
   <g id="patch_5">
    <path clip-path="url(#pec1d3891be)" d="M 684 512.64 
L 756 512.64 
L 756 329.990946 
L 684 329.990946 
z
" style="fill:#ff0000;"/>
   </g>
   <g id="patch_6">
    <path clip-path="url(#pec1d3891be)" d="M 774 512.64 
L 846 512.64 
L 846 345.629791 
L 774 345.629791 
z
" style="fill:#ff0000;"/>
   </g>
   <g id="patch_7">
    <path clip-path="url(#pec1d3891be)" d="M 864 512.64 
L 936 512.64 
L 936 362.103652 
L 864 362.103652 
z
" style="fill:#ff0000;"/>
   </g>
   <g id="patch_8">
    <path clip-path="url(#pec1d3891be)" d="M 954 512.64 
L 1026 512.64 
L 1026 363.269885 
L 954 363.269885 
z
" style="fill:#ff0000;"/>
   </g>
   <g id="patch_9">
    <path clip-path="url(#pec1d3891be)" d="M 1044 512.64 
L 1116 512.64 
L 1116 371.606335 
L 1044 371.606335 
z
" style="fill:#ff0000;"/>
   </g>
   <g id="patch_10">
    <path clip-path="url(#pec1d3891be)" d="M 1134 512.64 
L 1206 512.64 
L 1206 371.625738 
L 1134 371.625738 
z
" style="fill:#ff0000;"/>
   </g>
   <g id="patch_11">
    <path clip-path="url(#pec1d3891be)" d="M 1224 512.64 
L 1296 512.64 
L 1296 379.029675 
L 1224 379.029675 
z
" style="fill:#ff0000;"/>
   </g>
   <g id="patch_12">
    <path clip-path="url(#pec1d3891be)" d="M 1314 512.64 
L 1386 512.64 
L 1386 384.726967 
L 1314 384.726967 
z
" style="fill:#ff0000;"/>
   </g>
   <g id="patch_13">
    <path clip-path="url(#pec1d3891be)" d="M 1404 512.64 
L 1476 512.64 
L 1476 393.468588 
L 1404 393.468588 
z
" style="fill:#ff0000;"/>
   </g>
   <g id="patch_14">
    <path clip-path="url(#pec1d3891be)" d="M 1494 512.64 
L 1566 512.64 
L 1566 394.693542 
L 1494 394.693542 
z
" style="fill:#ff0000;"/>
   </g>
   <g id="patch_15">
    <path clip-path="url(#pec1d3891be)" d="M 1584 512.64 
L 1656 512.64 
L 1656 397.63836 
L 1584 397.63836 
z
" style="fill:#ff0000;"/>
   </g>
   <g id="patch_16">
    <path clip-path="url(#pec1d3891be)" d="M 1674 512.64 
L 1746 512.64 
L 1746 398.051343 
L 1674 398.051343 
z
" style="fill:#ff0000;"/>
   </g>
   <g id="patch_17">
    <path clip-path="url(#pec1d3891be)" d="M 1764 512.64 
L 1836 512.64 
L 1836 398.579556 
L 1764 398.579556 
z
" style="fill:#ff0000;"/>
   </g>
   <g id="patch_18">
    <path clip-path="url(#pec1d3891be)" d="M 1854 512.64 
L 1926 512.64 
L 1926 400.262757 
L 1854 400.262757 
z
" style="fill:#ff0000;"/>
   </g>
   <g id="patch_19">
    <path clip-path="url(#pec1d3891be)" d="M 1944 512.64 
L 2016 512.64 
L 2016 401.977331 
L 1944 401.977331 
z
" style="fill:#ff0000;"/>
   </g>
   <g id="patch_20">
    <path clip-path="url(#pec1d3891be)" d="M 2034 512.64 
L 2106 512.64 
L 2106 403.752392 
L 2034 403.752392 
z
" style="fill:#ff0000;"/>
   </g>
   <g id="patch_21">
    <path clip-path="url(#pec1d3891be)" d="M 2124 512.64 
L 2196 512.64 
L 2196 407.471582 
L 2124 407.471582 
z
" style="fill:#ff0000;"/>
   </g>
   <g id="patch_22">
    <path clip-path="url(#pec1d3891be)" d="M 2214 512.64 
L 2286 512.64 
L 2286 409.246569 
L 2214 409.246569 
z
" style="fill:#ff0000;"/>
   </g>
   <g id="patch_23">
    <path clip-path="url(#pec1d3891be)" d="M 2304 512.64 
L 2376 512.64 
L 2376 410.986043 
L 2304 410.986043 
z
" style="fill:#ff0000;"/>
   </g>
   <g id="patch_24">
    <path clip-path="url(#pec1d3891be)" d="M 2394 512.64 
L 2466 512.64 
L 2466 416.932379 
L 2394 416.932379 
z
" style="fill:#ff0000;"/>
   </g>
   <g id="patch_25">
    <path clip-path="url(#pec1d3891be)" d="M 2484 512.64 
L 2556 512.64 
L 2556 416.954448 
L 2484 416.954448 
z
" style="fill:#ff0000;"/>
   </g>
   <g id="patch_26">
    <path clip-path="url(#pec1d3891be)" d="M 2574 512.64 
L 2646 512.64 
L 2646 420.69501 
L 2574 420.69501 
z
" style="fill:#ff0000;"/>
   </g>
   <g id="patch_27">
    <path clip-path="url(#pec1d3891be)" d="M 2664 512.64 
L 2736 512.64 
L 2736 424.354654 
L 2664 424.354654 
z
" style="fill:#ff0000;"/>
   </g>
   <g id="patch_28">
    <path clip-path="url(#pec1d3891be)" d="M 2754 512.64 
L 2826 512.64 
L 2826 425.945936 
L 2754 425.945936 
z
" style="fill:#ff0000;"/>
   </g>
   <g id="patch_29">
    <path clip-path="url(#pec1d3891be)" d="M 2844 512.64 
L 2916 512.64 
L 2916 427.006362 
L 2844 427.006362 
z
" style="fill:#ff0000;"/>
   </g>
   <g id="patch_30">
    <path clip-path="url(#pec1d3891be)" d="M 2934 512.64 
L 3006 512.64 
L 3006 439.08787 
L 2934 439.08787 
z
" style="fill:#ff0000;"/>
   </g>
   <g id="patch_31">
    <path clip-path="url(#pec1d3891be)" d="M 3024 512.64 
L 3096 512.64 
L 3096 439.59165 
L 3024 439.59165 
z
" style="fill:#ff0000;"/>
   </g>
   <g id="patch_32">
    <path clip-path="url(#pec1d3891be)" d="M 3114 512.64 
L 3186 512.64 
L 3186 452.525497 
L 3114 452.525497 
z
" style="fill:#ff0000;"/>
   </g>
   <g id="matplotlib.axis_1">
    <g id="xtick_1">
     <g id="line2d_1">
      <defs>
       <path d="M 0 0 
L 0 3.5 
" id="mfa1070cfe4" style="stroke:#000000;stroke-width:0.8;"/>
      </defs>
      <g>
       <use style="stroke:#000000;stroke-width:0.8;" x="540" xlink:href="#mfa1070cfe4" y="512.64"/>
      </g>
     </g>
     <g id="text_1">
      <!-- shotsOnTarget -->
      <defs>
       <path d="M 44.28125 53.078125 
L 44.28125 44.578125 
Q 40.484375 46.53125 36.375 47.5 
Q 32.28125 48.484375 27.875 48.484375 
Q 21.1875 48.484375 17.84375 46.4375 
Q 14.5 44.390625 14.5 40.28125 
Q 14.5 37.15625 16.890625 35.375 
Q 19.28125 33.59375 26.515625 31.984375 
L 29.59375 31.296875 
Q 39.15625 29.25 43.1875 25.515625 
Q 47.21875 21.78125 47.21875 15.09375 
Q 47.21875 7.46875 41.1875 3.015625 
Q 35.15625 -1.421875 24.609375 -1.421875 
Q 20.21875 -1.421875 15.453125 -0.5625 
Q 10.6875 0.296875 5.421875 2 
L 5.421875 11.28125 
Q 10.40625 8.6875 15.234375 7.390625 
Q 20.0625 6.109375 24.8125 6.109375 
Q 31.15625 6.109375 34.5625 8.28125 
Q 37.984375 10.453125 37.984375 14.40625 
Q 37.984375 18.0625 35.515625 20.015625 
Q 33.0625 21.96875 24.703125 23.78125 
L 21.578125 24.515625 
Q 13.234375 26.265625 9.515625 29.90625 
Q 5.8125 33.546875 5.8125 39.890625 
Q 5.8125 47.609375 11.28125 51.796875 
Q 16.75 56 26.8125 56 
Q 31.78125 56 36.171875 55.265625 
Q 40.578125 54.546875 44.28125 53.078125 
z
" id="DejaVuSans-73"/>
       <path d="M 54.890625 33.015625 
L 54.890625 0 
L 45.90625 0 
L 45.90625 32.71875 
Q 45.90625 40.484375 42.875 44.328125 
Q 39.84375 48.1875 33.796875 48.1875 
Q 26.515625 48.1875 22.3125 43.546875 
Q 18.109375 38.921875 18.109375 30.90625 
L 18.109375 0 
L 9.078125 0 
L 9.078125 75.984375 
L 18.109375 75.984375 
L 18.109375 46.1875 
Q 21.34375 51.125 25.703125 53.5625 
Q 30.078125 56 35.796875 56 
Q 45.21875 56 50.046875 50.171875 
Q 54.890625 44.34375 54.890625 33.015625 
z
" id="DejaVuSans-68"/>
       <path d="M 30.609375 48.390625 
Q 23.390625 48.390625 19.1875 42.75 
Q 14.984375 37.109375 14.984375 27.296875 
Q 14.984375 17.484375 19.15625 11.84375 
Q 23.34375 6.203125 30.609375 6.203125 
Q 37.796875 6.203125 41.984375 11.859375 
Q 46.1875 17.53125 46.1875 27.296875 
Q 46.1875 37.015625 41.984375 42.703125 
Q 37.796875 48.390625 30.609375 48.390625 
z
M 30.609375 56 
Q 42.328125 56 49.015625 48.375 
Q 55.71875 40.765625 55.71875 27.296875 
Q 55.71875 13.875 49.015625 6.21875 
Q 42.328125 -1.421875 30.609375 -1.421875 
Q 18.84375 -1.421875 12.171875 6.21875 
Q 5.515625 13.875 5.515625 27.296875 
Q 5.515625 40.765625 12.171875 48.375 
Q 18.84375 56 30.609375 56 
z
" id="DejaVuSans-6f"/>
       <path d="M 18.3125 70.21875 
L 18.3125 54.6875 
L 36.8125 54.6875 
L 36.8125 47.703125 
L 18.3125 47.703125 
L 18.3125 18.015625 
Q 18.3125 11.328125 20.140625 9.421875 
Q 21.96875 7.515625 27.59375 7.515625 
L 36.8125 7.515625 
L 36.8125 0 
L 27.59375 0 
Q 17.1875 0 13.234375 3.875 
Q 9.28125 7.765625 9.28125 18.015625 
L 9.28125 47.703125 
L 2.6875 47.703125 
L 2.6875 54.6875 
L 9.28125 54.6875 
L 9.28125 70.21875 
z
" id="DejaVuSans-74"/>
       <path d="M 39.40625 66.21875 
Q 28.65625 66.21875 22.328125 58.203125 
Q 16.015625 50.203125 16.015625 36.375 
Q 16.015625 22.609375 22.328125 14.59375 
Q 28.65625 6.59375 39.40625 6.59375 
Q 50.140625 6.59375 56.421875 14.59375 
Q 62.703125 22.609375 62.703125 36.375 
Q 62.703125 50.203125 56.421875 58.203125 
Q 50.140625 66.21875 39.40625 66.21875 
z
M 39.40625 74.21875 
Q 54.734375 74.21875 63.90625 63.9375 
Q 73.09375 53.65625 73.09375 36.375 
Q 73.09375 19.140625 63.90625 8.859375 
Q 54.734375 -1.421875 39.40625 -1.421875 
Q 24.03125 -1.421875 14.8125 8.828125 
Q 5.609375 19.09375 5.609375 36.375 
Q 5.609375 53.65625 14.8125 63.9375 
Q 24.03125 74.21875 39.40625 74.21875 
z
" id="DejaVuSans-4f"/>
       <path d="M 54.890625 33.015625 
L 54.890625 0 
L 45.90625 0 
L 45.90625 32.71875 
Q 45.90625 40.484375 42.875 44.328125 
Q 39.84375 48.1875 33.796875 48.1875 
Q 26.515625 48.1875 22.3125 43.546875 
Q 18.109375 38.921875 18.109375 30.90625 
L 18.109375 0 
L 9.078125 0 
L 9.078125 54.6875 
L 18.109375 54.6875 
L 18.109375 46.1875 
Q 21.34375 51.125 25.703125 53.5625 
Q 30.078125 56 35.796875 56 
Q 45.21875 56 50.046875 50.171875 
Q 54.890625 44.34375 54.890625 33.015625 
z
" id="DejaVuSans-6e"/>
       <path d="M -0.296875 72.90625 
L 61.375 72.90625 
L 61.375 64.59375 
L 35.5 64.59375 
L 35.5 0 
L 25.59375 0 
L 25.59375 64.59375 
L -0.296875 64.59375 
z
" id="DejaVuSans-54"/>
       <path d="M 34.28125 27.484375 
Q 23.390625 27.484375 19.1875 25 
Q 14.984375 22.515625 14.984375 16.5 
Q 14.984375 11.71875 18.140625 8.90625 
Q 21.296875 6.109375 26.703125 6.109375 
Q 34.1875 6.109375 38.703125 11.40625 
Q 43.21875 16.703125 43.21875 25.484375 
L 43.21875 27.484375 
z
M 52.203125 31.203125 
L 52.203125 0 
L 43.21875 0 
L 43.21875 8.296875 
Q 40.140625 3.328125 35.546875 0.953125 
Q 30.953125 -1.421875 24.3125 -1.421875 
Q 15.921875 -1.421875 10.953125 3.296875 
Q 6 8.015625 6 15.921875 
Q 6 25.140625 12.171875 29.828125 
Q 18.359375 34.515625 30.609375 34.515625 
L 43.21875 34.515625 
L 43.21875 35.40625 
Q 43.21875 41.609375 39.140625 45 
Q 35.0625 48.390625 27.6875 48.390625 
Q 23 48.390625 18.546875 47.265625 
Q 14.109375 46.140625 10.015625 43.890625 
L 10.015625 52.203125 
Q 14.9375 54.109375 19.578125 55.046875 
Q 24.21875 56 28.609375 56 
Q 40.484375 56 46.34375 49.84375 
Q 52.203125 43.703125 52.203125 31.203125 
z
" id="DejaVuSans-61"/>
       <path d="M 41.109375 46.296875 
Q 39.59375 47.171875 37.8125 47.578125 
Q 36.03125 48 33.890625 48 
Q 26.265625 48 22.1875 43.046875 
Q 18.109375 38.09375 18.109375 28.8125 
L 18.109375 0 
L 9.078125 0 
L 9.078125 54.6875 
L 18.109375 54.6875 
L 18.109375 46.1875 
Q 20.953125 51.171875 25.484375 53.578125 
Q 30.03125 56 36.53125 56 
Q 37.453125 56 38.578125 55.875 
Q 39.703125 55.765625 41.0625 55.515625 
z
" id="DejaVuSans-72"/>
       <path d="M 45.40625 27.984375 
Q 45.40625 37.75 41.375 43.109375 
Q 37.359375 48.484375 30.078125 48.484375 
Q 22.859375 48.484375 18.828125 43.109375 
Q 14.796875 37.75 14.796875 27.984375 
Q 14.796875 18.265625 18.828125 12.890625 
Q 22.859375 7.515625 30.078125 7.515625 
Q 37.359375 7.515625 41.375 12.890625 
Q 45.40625 18.265625 45.40625 27.984375 
z
M 54.390625 6.78125 
Q 54.390625 -7.171875 48.1875 -13.984375 
Q 42 -20.796875 29.203125 -20.796875 
Q 24.46875 -20.796875 20.265625 -20.09375 
Q 16.0625 -19.390625 12.109375 -17.921875 
L 12.109375 -9.1875 
Q 16.0625 -11.328125 19.921875 -12.34375 
Q 23.78125 -13.375 27.78125 -13.375 
Q 36.625 -13.375 41.015625 -8.765625 
Q 45.40625 -4.15625 45.40625 5.171875 
L 45.40625 9.625 
Q 42.625 4.78125 38.28125 2.390625 
Q 33.9375 0 27.875 0 
Q 17.828125 0 11.671875 7.65625 
Q 5.515625 15.328125 5.515625 27.984375 
Q 5.515625 40.671875 11.671875 48.328125 
Q 17.828125 56 27.875 56 
Q 33.9375 56 38.28125 53.609375 
Q 42.625 51.21875 45.40625 46.390625 
L 45.40625 54.6875 
L 54.390625 54.6875 
z
" id="DejaVuSans-67"/>
       <path d="M 56.203125 29.59375 
L 56.203125 25.203125 
L 14.890625 25.203125 
Q 15.484375 15.921875 20.484375 11.0625 
Q 25.484375 6.203125 34.421875 6.203125 
Q 39.59375 6.203125 44.453125 7.46875 
Q 49.3125 8.734375 54.109375 11.28125 
L 54.109375 2.78125 
Q 49.265625 0.734375 44.1875 -0.34375 
Q 39.109375 -1.421875 33.890625 -1.421875 
Q 20.796875 -1.421875 13.15625 6.1875 
Q 5.515625 13.8125 5.515625 26.8125 
Q 5.515625 40.234375 12.765625 48.109375 
Q 20.015625 56 32.328125 56 
Q 43.359375 56 49.78125 48.890625 
Q 56.203125 41.796875 56.203125 29.59375 
z
M 47.21875 32.234375 
Q 47.125 39.59375 43.09375 43.984375 
Q 39.0625 48.390625 32.421875 48.390625 
Q 24.90625 48.390625 20.390625 44.140625 
Q 15.875 39.890625 15.1875 32.171875 
z
" id="DejaVuSans-65"/>
      </defs>
      <g transform="translate(503.126562 527.238438)scale(0.1 -0.1)">
       <use xlink:href="#DejaVuSans-73"/>
       <use x="52.099609" xlink:href="#DejaVuSans-68"/>
       <use x="115.478516" xlink:href="#DejaVuSans-6f"/>
       <use x="176.660156" xlink:href="#DejaVuSans-74"/>
       <use x="215.869141" xlink:href="#DejaVuSans-73"/>
       <use x="267.96875" xlink:href="#DejaVuSans-4f"/>
       <use x="346.679688" xlink:href="#DejaVuSans-6e"/>
       <use x="410.058594" xlink:href="#DejaVuSans-54"/>
       <use x="470.892578" xlink:href="#DejaVuSans-61"/>
       <use x="532.171875" xlink:href="#DejaVuSans-72"/>
       <use x="573.269531" xlink:href="#DejaVuSans-67"/>
       <use x="636.746094" xlink:href="#DejaVuSans-65"/>
       <use x="698.269531" xlink:href="#DejaVuSans-74"/>
      </g>
     </g>
    </g>
    <g id="xtick_2">
     <g id="line2d_2">
      <g>
       <use style="stroke:#000000;stroke-width:0.8;" x="630" xlink:href="#mfa1070cfe4" y="512.64"/>
      </g>
     </g>
     <g id="text_2">
      <!-- clearances -->
      <defs>
       <path d="M 48.78125 52.59375 
L 48.78125 44.1875 
Q 44.96875 46.296875 41.140625 47.34375 
Q 37.3125 48.390625 33.40625 48.390625 
Q 24.65625 48.390625 19.8125 42.84375 
Q 14.984375 37.3125 14.984375 27.296875 
Q 14.984375 17.28125 19.8125 11.734375 
Q 24.65625 6.203125 33.40625 6.203125 
Q 37.3125 6.203125 41.140625 7.25 
Q 44.96875 8.296875 48.78125 10.40625 
L 48.78125 2.09375 
Q 45.015625 0.34375 40.984375 -0.53125 
Q 36.96875 -1.421875 32.421875 -1.421875 
Q 20.0625 -1.421875 12.78125 6.34375 
Q 5.515625 14.109375 5.515625 27.296875 
Q 5.515625 40.671875 12.859375 48.328125 
Q 20.21875 56 33.015625 56 
Q 37.15625 56 41.109375 55.140625 
Q 45.0625 54.296875 48.78125 52.59375 
z
" id="DejaVuSans-63"/>
       <path d="M 9.421875 75.984375 
L 18.40625 75.984375 
L 18.40625 0 
L 9.421875 0 
z
" id="DejaVuSans-6c"/>
      </defs>
      <g transform="translate(603.002344 527.238438)scale(0.1 -0.1)">
       <use xlink:href="#DejaVuSans-63"/>
       <use x="54.980469" xlink:href="#DejaVuSans-6c"/>
       <use x="82.763672" xlink:href="#DejaVuSans-65"/>
       <use x="144.287109" xlink:href="#DejaVuSans-61"/>
       <use x="205.566406" xlink:href="#DejaVuSans-72"/>
       <use x="246.679688" xlink:href="#DejaVuSans-61"/>
       <use x="307.958984" xlink:href="#DejaVuSans-6e"/>
       <use x="371.337891" xlink:href="#DejaVuSans-63"/>
       <use x="426.318359" xlink:href="#DejaVuSans-65"/>
       <use x="487.841797" xlink:href="#DejaVuSans-73"/>
      </g>
     </g>
    </g>
    <g id="xtick_3">
     <g id="line2d_3">
      <g>
       <use style="stroke:#000000;stroke-width:0.8;" x="720" xlink:href="#mfa1070cfe4" y="512.64"/>
      </g>
     </g>
     <g id="text_3">
      <!-- defensiveAerials -->
      <defs>
       <path d="M 45.40625 46.390625 
L 45.40625 75.984375 
L 54.390625 75.984375 
L 54.390625 0 
L 45.40625 0 
L 45.40625 8.203125 
Q 42.578125 3.328125 38.25 0.953125 
Q 33.9375 -1.421875 27.875 -1.421875 
Q 17.96875 -1.421875 11.734375 6.484375 
Q 5.515625 14.40625 5.515625 27.296875 
Q 5.515625 40.1875 11.734375 48.09375 
Q 17.96875 56 27.875 56 
Q 33.9375 56 38.25 53.625 
Q 42.578125 51.265625 45.40625 46.390625 
z
M 14.796875 27.296875 
Q 14.796875 17.390625 18.875 11.75 
Q 22.953125 6.109375 30.078125 6.109375 
Q 37.203125 6.109375 41.296875 11.75 
Q 45.40625 17.390625 45.40625 27.296875 
Q 45.40625 37.203125 41.296875 42.84375 
Q 37.203125 48.484375 30.078125 48.484375 
Q 22.953125 48.484375 18.875 42.84375 
Q 14.796875 37.203125 14.796875 27.296875 
z
" id="DejaVuSans-64"/>
       <path d="M 37.109375 75.984375 
L 37.109375 68.5 
L 28.515625 68.5 
Q 23.6875 68.5 21.796875 66.546875 
Q 19.921875 64.59375 19.921875 59.515625 
L 19.921875 54.6875 
L 34.71875 54.6875 
L 34.71875 47.703125 
L 19.921875 47.703125 
L 19.921875 0 
L 10.890625 0 
L 10.890625 47.703125 
L 2.296875 47.703125 
L 2.296875 54.6875 
L 10.890625 54.6875 
L 10.890625 58.5 
Q 10.890625 67.625 15.140625 71.796875 
Q 19.390625 75.984375 28.609375 75.984375 
z
" id="DejaVuSans-66"/>
       <path d="M 9.421875 54.6875 
L 18.40625 54.6875 
L 18.40625 0 
L 9.421875 0 
z
M 9.421875 75.984375 
L 18.40625 75.984375 
L 18.40625 64.59375 
L 9.421875 64.59375 
z
" id="DejaVuSans-69"/>
       <path d="M 2.984375 54.6875 
L 12.5 54.6875 
L 29.59375 8.796875 
L 46.6875 54.6875 
L 56.203125 54.6875 
L 35.6875 0 
L 23.484375 0 
z
" id="DejaVuSans-76"/>
       <path d="M 34.1875 63.1875 
L 20.796875 26.90625 
L 47.609375 26.90625 
z
M 28.609375 72.90625 
L 39.796875 72.90625 
L 67.578125 0 
L 57.328125 0 
L 50.6875 18.703125 
L 17.828125 18.703125 
L 11.1875 0 
L 0.78125 0 
z
" id="DejaVuSans-41"/>
      </defs>
      <g transform="translate(678.715625 527.238438)scale(0.1 -0.1)">
       <use xlink:href="#DejaVuSans-64"/>
       <use x="63.476562" xlink:href="#DejaVuSans-65"/>
       <use x="125" xlink:href="#DejaVuSans-66"/>
       <use x="160.205078" xlink:href="#DejaVuSans-65"/>
       <use x="221.728516" xlink:href="#DejaVuSans-6e"/>
       <use x="285.107422" xlink:href="#DejaVuSans-73"/>
       <use x="337.207031" xlink:href="#DejaVuSans-69"/>
       <use x="364.990234" xlink:href="#DejaVuSans-76"/>
       <use x="424.169922" xlink:href="#DejaVuSans-65"/>
       <use x="485.693359" xlink:href="#DejaVuSans-41"/>
       <use x="554.085938" xlink:href="#DejaVuSans-65"/>
       <use x="615.609375" xlink:href="#DejaVuSans-72"/>
       <use x="656.722656" xlink:href="#DejaVuSans-69"/>
       <use x="684.505859" xlink:href="#DejaVuSans-61"/>
       <use x="745.785156" xlink:href="#DejaVuSans-6c"/>
       <use x="773.568359" xlink:href="#DejaVuSans-73"/>
      </g>
     </g>
    </g>
    <g id="xtick_4">
     <g id="line2d_4">
      <g>
       <use style="stroke:#000000;stroke-width:0.8;" x="810" xlink:href="#mfa1070cfe4" y="512.64"/>
      </g>
     </g>
     <g id="text_4">
      <!-- offensiveAerials -->
      <g transform="translate(770.146875 527.238438)scale(0.1 -0.1)">
       <use xlink:href="#DejaVuSans-6f"/>
       <use x="61.181641" xlink:href="#DejaVuSans-66"/>
       <use x="96.386719" xlink:href="#DejaVuSans-66"/>
       <use x="131.591797" xlink:href="#DejaVuSans-65"/>
       <use x="193.115234" xlink:href="#DejaVuSans-6e"/>
       <use x="256.494141" xlink:href="#DejaVuSans-73"/>
       <use x="308.59375" xlink:href="#DejaVuSans-69"/>
       <use x="336.376953" xlink:href="#DejaVuSans-76"/>
       <use x="395.556641" xlink:href="#DejaVuSans-65"/>
       <use x="457.080078" xlink:href="#DejaVuSans-41"/>
       <use x="525.472656" xlink:href="#DejaVuSans-65"/>
       <use x="586.996094" xlink:href="#DejaVuSans-72"/>
       <use x="628.109375" xlink:href="#DejaVuSans-69"/>
       <use x="655.892578" xlink:href="#DejaVuSans-61"/>
       <use x="717.171875" xlink:href="#DejaVuSans-6c"/>
       <use x="744.955078" xlink:href="#DejaVuSans-73"/>
      </g>
     </g>
    </g>
    <g id="xtick_5">
     <g id="line2d_5">
      <g>
       <use style="stroke:#000000;stroke-width:0.8;" x="900" xlink:href="#mfa1070cfe4" y="512.64"/>
      </g>
     </g>
     <g id="text_5">
      <!-- shotsTotal -->
      <g transform="translate(874.089062 527.238438)scale(0.1 -0.1)">
       <use xlink:href="#DejaVuSans-73"/>
       <use x="52.099609" xlink:href="#DejaVuSans-68"/>
       <use x="115.478516" xlink:href="#DejaVuSans-6f"/>
       <use x="176.660156" xlink:href="#DejaVuSans-74"/>
       <use x="215.869141" xlink:href="#DejaVuSans-73"/>
       <use x="267.96875" xlink:href="#DejaVuSans-54"/>
       <use x="328.787109" xlink:href="#DejaVuSans-6f"/>
       <use x="389.96875" xlink:href="#DejaVuSans-74"/>
       <use x="429.177734" xlink:href="#DejaVuSans-61"/>
       <use x="490.457031" xlink:href="#DejaVuSans-6c"/>
      </g>
     </g>
    </g>
    <g id="xtick_6">
     <g id="line2d_6">
      <g>
       <use style="stroke:#000000;stroke-width:0.8;" x="990" xlink:href="#mfa1070cfe4" y="512.64"/>
      </g>
     </g>
     <g id="text_6">
      <!-- passesKey -->
      <defs>
       <path d="M 18.109375 8.203125 
L 18.109375 -20.796875 
L 9.078125 -20.796875 
L 9.078125 54.6875 
L 18.109375 54.6875 
L 18.109375 46.390625 
Q 20.953125 51.265625 25.265625 53.625 
Q 29.59375 56 35.59375 56 
Q 45.5625 56 51.78125 48.09375 
Q 58.015625 40.1875 58.015625 27.296875 
Q 58.015625 14.40625 51.78125 6.484375 
Q 45.5625 -1.421875 35.59375 -1.421875 
Q 29.59375 -1.421875 25.265625 0.953125 
Q 20.953125 3.328125 18.109375 8.203125 
z
M 48.6875 27.296875 
Q 48.6875 37.203125 44.609375 42.84375 
Q 40.53125 48.484375 33.40625 48.484375 
Q 26.265625 48.484375 22.1875 42.84375 
Q 18.109375 37.203125 18.109375 27.296875 
Q 18.109375 17.390625 22.1875 11.75 
Q 26.265625 6.109375 33.40625 6.109375 
Q 40.53125 6.109375 44.609375 11.75 
Q 48.6875 17.390625 48.6875 27.296875 
z
" id="DejaVuSans-70"/>
       <path d="M 9.8125 72.90625 
L 19.671875 72.90625 
L 19.671875 42.09375 
L 52.390625 72.90625 
L 65.09375 72.90625 
L 28.90625 38.921875 
L 67.671875 0 
L 54.6875 0 
L 19.671875 35.109375 
L 19.671875 0 
L 9.8125 0 
z
" id="DejaVuSans-4b"/>
       <path d="M 32.171875 -5.078125 
Q 28.375 -14.84375 24.75 -17.8125 
Q 21.140625 -20.796875 15.09375 -20.796875 
L 7.90625 -20.796875 
L 7.90625 -13.28125 
L 13.1875 -13.28125 
Q 16.890625 -13.28125 18.9375 -11.515625 
Q 21 -9.765625 23.484375 -3.21875 
L 25.09375 0.875 
L 2.984375 54.6875 
L 12.5 54.6875 
L 29.59375 11.921875 
L 46.6875 54.6875 
L 56.203125 54.6875 
z
" id="DejaVuSans-79"/>
      </defs>
      <g transform="translate(963.560156 527.238438)scale(0.1 -0.1)">
       <use xlink:href="#DejaVuSans-70"/>
       <use x="63.476562" xlink:href="#DejaVuSans-61"/>
       <use x="124.755859" xlink:href="#DejaVuSans-73"/>
       <use x="176.855469" xlink:href="#DejaVuSans-73"/>
       <use x="228.955078" xlink:href="#DejaVuSans-65"/>
       <use x="290.478516" xlink:href="#DejaVuSans-73"/>
       <use x="342.578125" xlink:href="#DejaVuSans-4b"/>
       <use x="408.076172" xlink:href="#DejaVuSans-65"/>
       <use x="469.599609" xlink:href="#DejaVuSans-79"/>
      </g>
     </g>
    </g>
    <g id="xtick_7">
     <g id="line2d_7">
      <g>
       <use style="stroke:#000000;stroke-width:0.8;" x="1080" xlink:href="#mfa1070cfe4" y="512.64"/>
      </g>
     </g>
     <g id="text_7">
      <!-- touches -->
      <defs>
       <path d="M 8.5 21.578125 
L 8.5 54.6875 
L 17.484375 54.6875 
L 17.484375 21.921875 
Q 17.484375 14.15625 20.5 10.265625 
Q 23.53125 6.390625 29.59375 6.390625 
Q 36.859375 6.390625 41.078125 11.03125 
Q 45.3125 15.671875 45.3125 23.6875 
L 45.3125 54.6875 
L 54.296875 54.6875 
L 54.296875 0 
L 45.3125 0 
L 45.3125 8.40625 
Q 42.046875 3.421875 37.71875 1 
Q 33.40625 -1.421875 27.6875 -1.421875 
Q 18.265625 -1.421875 13.375 4.4375 
Q 8.5 10.296875 8.5 21.578125 
z
M 31.109375 56 
z
" id="DejaVuSans-75"/>
      </defs>
      <g transform="translate(1060.2125 527.238438)scale(0.1 -0.1)">
       <use xlink:href="#DejaVuSans-74"/>
       <use x="39.208984" xlink:href="#DejaVuSans-6f"/>
       <use x="100.390625" xlink:href="#DejaVuSans-75"/>
       <use x="163.769531" xlink:href="#DejaVuSans-63"/>
       <use x="218.75" xlink:href="#DejaVuSans-68"/>
       <use x="282.128906" xlink:href="#DejaVuSans-65"/>
       <use x="343.652344" xlink:href="#DejaVuSans-73"/>
      </g>
     </g>
    </g>
    <g id="xtick_8">
     <g id="line2d_8">
      <g>
       <use style="stroke:#000000;stroke-width:0.8;" x="1170" xlink:href="#mfa1070cfe4" y="512.64"/>
      </g>
     </g>
     <g id="text_8">
      <!-- passesAccurate -->
      <g transform="translate(1130.628125 527.238438)scale(0.1 -0.1)">
       <use xlink:href="#DejaVuSans-70"/>
       <use x="63.476562" xlink:href="#DejaVuSans-61"/>
       <use x="124.755859" xlink:href="#DejaVuSans-73"/>
       <use x="176.855469" xlink:href="#DejaVuSans-73"/>
       <use x="228.955078" xlink:href="#DejaVuSans-65"/>
       <use x="290.478516" xlink:href="#DejaVuSans-73"/>
       <use x="342.578125" xlink:href="#DejaVuSans-41"/>
       <use x="410.970703" xlink:href="#DejaVuSans-63"/>
       <use x="465.951172" xlink:href="#DejaVuSans-63"/>
       <use x="520.931641" xlink:href="#DejaVuSans-75"/>
       <use x="584.310547" xlink:href="#DejaVuSans-72"/>
       <use x="625.423828" xlink:href="#DejaVuSans-61"/>
       <use x="686.703125" xlink:href="#DejaVuSans-74"/>
       <use x="725.912109" xlink:href="#DejaVuSans-65"/>
      </g>
     </g>
    </g>
    <g id="xtick_9">
     <g id="line2d_9">
      <g>
       <use style="stroke:#000000;stroke-width:0.8;" x="1260" xlink:href="#mfa1070cfe4" y="512.64"/>
      </g>
     </g>
     <g id="text_9">
      <!-- passesTotal -->
      <g transform="translate(1230.357812 527.238438)scale(0.1 -0.1)">
       <use xlink:href="#DejaVuSans-70"/>
       <use x="63.476562" xlink:href="#DejaVuSans-61"/>
       <use x="124.755859" xlink:href="#DejaVuSans-73"/>
       <use x="176.855469" xlink:href="#DejaVuSans-73"/>
       <use x="228.955078" xlink:href="#DejaVuSans-65"/>
       <use x="290.478516" xlink:href="#DejaVuSans-73"/>
       <use x="342.578125" xlink:href="#DejaVuSans-54"/>
       <use x="403.396484" xlink:href="#DejaVuSans-6f"/>
       <use x="464.578125" xlink:href="#DejaVuSans-74"/>
       <use x="503.787109" xlink:href="#DejaVuSans-61"/>
       <use x="565.066406" xlink:href="#DejaVuSans-6c"/>
      </g>
     </g>
    </g>
    <g id="xtick_10">
     <g id="line2d_10">
      <g>
       <use style="stroke:#000000;stroke-width:0.8;" x="1350" xlink:href="#mfa1070cfe4" y="512.64"/>
      </g>
     </g>
     <g id="text_10">
      <!-- possession -->
      <g transform="translate(1322.653906 527.238438)scale(0.1 -0.1)">
       <use xlink:href="#DejaVuSans-70"/>
       <use x="63.476562" xlink:href="#DejaVuSans-6f"/>
       <use x="124.658203" xlink:href="#DejaVuSans-73"/>
       <use x="176.757812" xlink:href="#DejaVuSans-73"/>
       <use x="228.857422" xlink:href="#DejaVuSans-65"/>
       <use x="290.380859" xlink:href="#DejaVuSans-73"/>
       <use x="342.480469" xlink:href="#DejaVuSans-73"/>
       <use x="394.580078" xlink:href="#DejaVuSans-69"/>
       <use x="422.363281" xlink:href="#DejaVuSans-6f"/>
       <use x="483.544922" xlink:href="#DejaVuSans-6e"/>
      </g>
     </g>
    </g>
    <g id="xtick_11">
     <g id="line2d_11">
      <g>
       <use style="stroke:#000000;stroke-width:0.8;" x="1440" xlink:href="#mfa1070cfe4" y="512.64"/>
      </g>
     </g>
     <g id="text_11">
      <!-- aerialsTotal -->
      <g transform="translate(1410.84375 527.238438)scale(0.1 -0.1)">
       <use xlink:href="#DejaVuSans-61"/>
       <use x="61.279297" xlink:href="#DejaVuSans-65"/>
       <use x="122.802734" xlink:href="#DejaVuSans-72"/>
       <use x="163.916016" xlink:href="#DejaVuSans-69"/>
       <use x="191.699219" xlink:href="#DejaVuSans-61"/>
       <use x="252.978516" xlink:href="#DejaVuSans-6c"/>
       <use x="280.761719" xlink:href="#DejaVuSans-73"/>
       <use x="332.861328" xlink:href="#DejaVuSans-54"/>
       <use x="393.679688" xlink:href="#DejaVuSans-6f"/>
       <use x="454.861328" xlink:href="#DejaVuSans-74"/>
       <use x="494.070312" xlink:href="#DejaVuSans-61"/>
       <use x="555.349609" xlink:href="#DejaVuSans-6c"/>
      </g>
     </g>
    </g>
    <g id="xtick_12">
     <g id="line2d_12">
      <g>
       <use style="stroke:#000000;stroke-width:0.8;" x="1530" xlink:href="#mfa1070cfe4" y="512.64"/>
      </g>
     </g>
     <g id="text_12">
      <!-- throwInsAccurate -->
      <defs>
       <path d="M 4.203125 54.6875 
L 13.1875 54.6875 
L 24.421875 12.015625 
L 35.59375 54.6875 
L 46.1875 54.6875 
L 57.421875 12.015625 
L 68.609375 54.6875 
L 77.59375 54.6875 
L 63.28125 0 
L 52.6875 0 
L 40.921875 44.828125 
L 29.109375 0 
L 18.5 0 
z
" id="DejaVuSans-77"/>
       <path d="M 9.8125 72.90625 
L 19.671875 72.90625 
L 19.671875 0 
L 9.8125 0 
z
" id="DejaVuSans-49"/>
      </defs>
      <g transform="translate(1486.177344 527.238438)scale(0.1 -0.1)">
       <use xlink:href="#DejaVuSans-74"/>
       <use x="39.208984" xlink:href="#DejaVuSans-68"/>
       <use x="102.587891" xlink:href="#DejaVuSans-72"/>
       <use x="143.669922" xlink:href="#DejaVuSans-6f"/>
       <use x="204.851562" xlink:href="#DejaVuSans-77"/>
       <use x="286.638672" xlink:href="#DejaVuSans-49"/>
       <use x="316.130859" xlink:href="#DejaVuSans-6e"/>
       <use x="379.509766" xlink:href="#DejaVuSans-73"/>
       <use x="431.609375" xlink:href="#DejaVuSans-41"/>
       <use x="500.001953" xlink:href="#DejaVuSans-63"/>
       <use x="554.982422" xlink:href="#DejaVuSans-63"/>
       <use x="609.962891" xlink:href="#DejaVuSans-75"/>
       <use x="673.341797" xlink:href="#DejaVuSans-72"/>
       <use x="714.455078" xlink:href="#DejaVuSans-61"/>
       <use x="775.734375" xlink:href="#DejaVuSans-74"/>
       <use x="814.943359" xlink:href="#DejaVuSans-65"/>
      </g>
     </g>
    </g>
    <g id="xtick_13">
     <g id="line2d_13">
      <g>
       <use style="stroke:#000000;stroke-width:0.8;" x="1620" xlink:href="#mfa1070cfe4" y="512.64"/>
      </g>
     </g>
     <g id="text_13">
      <!-- interceptions -->
      <g transform="translate(1587.169531 527.238438)scale(0.1 -0.1)">
       <use xlink:href="#DejaVuSans-69"/>
       <use x="27.783203" xlink:href="#DejaVuSans-6e"/>
       <use x="91.162109" xlink:href="#DejaVuSans-74"/>
       <use x="130.371094" xlink:href="#DejaVuSans-65"/>
       <use x="191.894531" xlink:href="#DejaVuSans-72"/>
       <use x="232.976562" xlink:href="#DejaVuSans-63"/>
       <use x="287.957031" xlink:href="#DejaVuSans-65"/>
       <use x="349.480469" xlink:href="#DejaVuSans-70"/>
       <use x="412.957031" xlink:href="#DejaVuSans-74"/>
       <use x="452.166016" xlink:href="#DejaVuSans-69"/>
       <use x="479.949219" xlink:href="#DejaVuSans-6f"/>
       <use x="541.130859" xlink:href="#DejaVuSans-6e"/>
       <use x="604.509766" xlink:href="#DejaVuSans-73"/>
      </g>
     </g>
    </g>
    <g id="xtick_14">
     <g id="line2d_14">
      <g>
       <use style="stroke:#000000;stroke-width:0.8;" x="1710" xlink:href="#mfa1070cfe4" y="512.64"/>
      </g>
     </g>
     <g id="text_14">
      <!-- aerialsWon -->
      <defs>
       <path d="M 3.328125 72.90625 
L 13.28125 72.90625 
L 28.609375 11.28125 
L 43.890625 72.90625 
L 54.984375 72.90625 
L 70.3125 11.28125 
L 85.59375 72.90625 
L 95.609375 72.90625 
L 77.296875 0 
L 64.890625 0 
L 49.515625 63.28125 
L 33.984375 0 
L 21.578125 0 
z
" id="DejaVuSans-57"/>
      </defs>
      <g transform="translate(1682.189063 527.238438)scale(0.1 -0.1)">
       <use xlink:href="#DejaVuSans-61"/>
       <use x="61.279297" xlink:href="#DejaVuSans-65"/>
       <use x="122.802734" xlink:href="#DejaVuSans-72"/>
       <use x="163.916016" xlink:href="#DejaVuSans-69"/>
       <use x="191.699219" xlink:href="#DejaVuSans-61"/>
       <use x="252.978516" xlink:href="#DejaVuSans-6c"/>
       <use x="280.761719" xlink:href="#DejaVuSans-73"/>
       <use x="332.861328" xlink:href="#DejaVuSans-57"/>
       <use x="431.660156" xlink:href="#DejaVuSans-6f"/>
       <use x="492.841797" xlink:href="#DejaVuSans-6e"/>
      </g>
     </g>
    </g>
    <g id="xtick_15">
     <g id="line2d_15">
      <g>
       <use style="stroke:#000000;stroke-width:0.8;" x="1800" xlink:href="#mfa1070cfe4" y="512.64"/>
      </g>
     </g>
     <g id="text_15">
      <!-- dispossessed -->
      <g transform="translate(1766.852344 527.238438)scale(0.1 -0.1)">
       <use xlink:href="#DejaVuSans-64"/>
       <use x="63.476562" xlink:href="#DejaVuSans-69"/>
       <use x="91.259766" xlink:href="#DejaVuSans-73"/>
       <use x="143.359375" xlink:href="#DejaVuSans-70"/>
       <use x="206.835938" xlink:href="#DejaVuSans-6f"/>
       <use x="268.017578" xlink:href="#DejaVuSans-73"/>
       <use x="320.117188" xlink:href="#DejaVuSans-73"/>
       <use x="372.216797" xlink:href="#DejaVuSans-65"/>
       <use x="433.740234" xlink:href="#DejaVuSans-73"/>
       <use x="485.839844" xlink:href="#DejaVuSans-73"/>
       <use x="537.939453" xlink:href="#DejaVuSans-65"/>
       <use x="599.462891" xlink:href="#DejaVuSans-64"/>
      </g>
     </g>
    </g>
    <g id="xtick_16">
     <g id="line2d_16">
      <g>
       <use style="stroke:#000000;stroke-width:0.8;" x="1890" xlink:href="#mfa1070cfe4" y="512.64"/>
      </g>
     </g>
     <g id="text_16">
      <!-- throwInsTotal -->
      <g transform="translate(1855.907031 527.238438)scale(0.1 -0.1)">
       <use xlink:href="#DejaVuSans-74"/>
       <use x="39.208984" xlink:href="#DejaVuSans-68"/>
       <use x="102.587891" xlink:href="#DejaVuSans-72"/>
       <use x="143.669922" xlink:href="#DejaVuSans-6f"/>
       <use x="204.851562" xlink:href="#DejaVuSans-77"/>
       <use x="286.638672" xlink:href="#DejaVuSans-49"/>
       <use x="316.130859" xlink:href="#DejaVuSans-6e"/>
       <use x="379.509766" xlink:href="#DejaVuSans-73"/>
       <use x="431.609375" xlink:href="#DejaVuSans-54"/>
       <use x="492.427734" xlink:href="#DejaVuSans-6f"/>
       <use x="553.609375" xlink:href="#DejaVuSans-74"/>
       <use x="592.818359" xlink:href="#DejaVuSans-61"/>
       <use x="654.097656" xlink:href="#DejaVuSans-6c"/>
      </g>
     </g>
    </g>
    <g id="xtick_17">
     <g id="line2d_17">
      <g>
       <use style="stroke:#000000;stroke-width:0.8;" x="1980" xlink:href="#mfa1070cfe4" y="512.64"/>
      </g>
     </g>
     <g id="text_17">
      <!-- tackleSuccessful -->
      <defs>
       <path d="M 9.078125 75.984375 
L 18.109375 75.984375 
L 18.109375 31.109375 
L 44.921875 54.6875 
L 56.390625 54.6875 
L 27.390625 29.109375 
L 57.625 0 
L 45.90625 0 
L 18.109375 26.703125 
L 18.109375 0 
L 9.078125 0 
z
" id="DejaVuSans-6b"/>
       <path d="M 53.515625 70.515625 
L 53.515625 60.890625 
Q 47.90625 63.578125 42.921875 64.890625 
Q 37.9375 66.21875 33.296875 66.21875 
Q 25.25 66.21875 20.875 63.09375 
Q 16.5 59.96875 16.5 54.203125 
Q 16.5 49.359375 19.40625 46.890625 
Q 22.3125 44.4375 30.421875 42.921875 
L 36.375 41.703125 
Q 47.40625 39.59375 52.65625 34.296875 
Q 57.90625 29 57.90625 20.125 
Q 57.90625 9.515625 50.796875 4.046875 
Q 43.703125 -1.421875 29.984375 -1.421875 
Q 24.8125 -1.421875 18.96875 -0.25 
Q 13.140625 0.921875 6.890625 3.21875 
L 6.890625 13.375 
Q 12.890625 10.015625 18.65625 8.296875 
Q 24.421875 6.59375 29.984375 6.59375 
Q 38.421875 6.59375 43.015625 9.90625 
Q 47.609375 13.234375 47.609375 19.390625 
Q 47.609375 24.75 44.3125 27.78125 
Q 41.015625 30.8125 33.5 32.328125 
L 27.484375 33.5 
Q 16.453125 35.6875 11.515625 40.375 
Q 6.59375 45.0625 6.59375 53.421875 
Q 6.59375 63.09375 13.40625 68.65625 
Q 20.21875 74.21875 32.171875 74.21875 
Q 37.3125 74.21875 42.625 73.28125 
Q 47.953125 72.359375 53.515625 70.515625 
z
" id="DejaVuSans-53"/>
      </defs>
      <g transform="translate(1938.420312 527.238438)scale(0.1 -0.1)">
       <use xlink:href="#DejaVuSans-74"/>
       <use x="39.208984" xlink:href="#DejaVuSans-61"/>
       <use x="100.488281" xlink:href="#DejaVuSans-63"/>
       <use x="155.46875" xlink:href="#DejaVuSans-6b"/>
       <use x="213.378906" xlink:href="#DejaVuSans-6c"/>
       <use x="241.162109" xlink:href="#DejaVuSans-65"/>
       <use x="302.685547" xlink:href="#DejaVuSans-53"/>
       <use x="366.162109" xlink:href="#DejaVuSans-75"/>
       <use x="429.541016" xlink:href="#DejaVuSans-63"/>
       <use x="484.521484" xlink:href="#DejaVuSans-63"/>
       <use x="539.501953" xlink:href="#DejaVuSans-65"/>
       <use x="601.025391" xlink:href="#DejaVuSans-73"/>
       <use x="653.125" xlink:href="#DejaVuSans-73"/>
       <use x="705.224609" xlink:href="#DejaVuSans-66"/>
       <use x="740.429688" xlink:href="#DejaVuSans-75"/>
       <use x="803.808594" xlink:href="#DejaVuSans-6c"/>
      </g>
     </g>
    </g>
    <g id="xtick_18">
     <g id="line2d_18">
      <g>
       <use style="stroke:#000000;stroke-width:0.8;" x="2070" xlink:href="#mfa1070cfe4" y="512.64"/>
      </g>
     </g>
     <g id="text_18">
      <!-- tacklesTotal -->
      <g transform="translate(2039.747656 527.238438)scale(0.1 -0.1)">
       <use xlink:href="#DejaVuSans-74"/>
       <use x="39.208984" xlink:href="#DejaVuSans-61"/>
       <use x="100.488281" xlink:href="#DejaVuSans-63"/>
       <use x="155.46875" xlink:href="#DejaVuSans-6b"/>
       <use x="213.378906" xlink:href="#DejaVuSans-6c"/>
       <use x="241.162109" xlink:href="#DejaVuSans-65"/>
       <use x="302.685547" xlink:href="#DejaVuSans-73"/>
       <use x="354.785156" xlink:href="#DejaVuSans-54"/>
       <use x="415.603516" xlink:href="#DejaVuSans-6f"/>
       <use x="476.785156" xlink:href="#DejaVuSans-74"/>
       <use x="515.994141" xlink:href="#DejaVuSans-61"/>
       <use x="577.273438" xlink:href="#DejaVuSans-6c"/>
      </g>
     </g>
    </g>
    <g id="xtick_19">
     <g id="line2d_19">
      <g>
       <use style="stroke:#000000;stroke-width:0.8;" x="2160" xlink:href="#mfa1070cfe4" y="512.64"/>
      </g>
     </g>
     <g id="text_19">
      <!-- dribblesAttempted -->
      <defs>
       <path d="M 48.6875 27.296875 
Q 48.6875 37.203125 44.609375 42.84375 
Q 40.53125 48.484375 33.40625 48.484375 
Q 26.265625 48.484375 22.1875 42.84375 
Q 18.109375 37.203125 18.109375 27.296875 
Q 18.109375 17.390625 22.1875 11.75 
Q 26.265625 6.109375 33.40625 6.109375 
Q 40.53125 6.109375 44.609375 11.75 
Q 48.6875 17.390625 48.6875 27.296875 
z
M 18.109375 46.390625 
Q 20.953125 51.265625 25.265625 53.625 
Q 29.59375 56 35.59375 56 
Q 45.5625 56 51.78125 48.09375 
Q 58.015625 40.1875 58.015625 27.296875 
Q 58.015625 14.40625 51.78125 6.484375 
Q 45.5625 -1.421875 35.59375 -1.421875 
Q 29.59375 -1.421875 25.265625 0.953125 
Q 20.953125 3.328125 18.109375 8.203125 
L 18.109375 0 
L 9.078125 0 
L 9.078125 75.984375 
L 18.109375 75.984375 
z
" id="DejaVuSans-62"/>
       <path d="M 52 44.1875 
Q 55.375 50.25 60.0625 53.125 
Q 64.75 56 71.09375 56 
Q 79.640625 56 84.28125 50.015625 
Q 88.921875 44.046875 88.921875 33.015625 
L 88.921875 0 
L 79.890625 0 
L 79.890625 32.71875 
Q 79.890625 40.578125 77.09375 44.375 
Q 74.3125 48.1875 68.609375 48.1875 
Q 61.625 48.1875 57.5625 43.546875 
Q 53.515625 38.921875 53.515625 30.90625 
L 53.515625 0 
L 44.484375 0 
L 44.484375 32.71875 
Q 44.484375 40.625 41.703125 44.40625 
Q 38.921875 48.1875 33.109375 48.1875 
Q 26.21875 48.1875 22.15625 43.53125 
Q 18.109375 38.875 18.109375 30.90625 
L 18.109375 0 
L 9.078125 0 
L 9.078125 54.6875 
L 18.109375 54.6875 
L 18.109375 46.1875 
Q 21.1875 51.21875 25.484375 53.609375 
Q 29.78125 56 35.6875 56 
Q 41.65625 56 45.828125 52.96875 
Q 50 49.953125 52 44.1875 
z
" id="DejaVuSans-6d"/>
      </defs>
      <g transform="translate(2113.290625 527.238438)scale(0.1 -0.1)">
       <use xlink:href="#DejaVuSans-64"/>
       <use x="63.476562" xlink:href="#DejaVuSans-72"/>
       <use x="104.589844" xlink:href="#DejaVuSans-69"/>
       <use x="132.373047" xlink:href="#DejaVuSans-62"/>
       <use x="195.849609" xlink:href="#DejaVuSans-62"/>
       <use x="259.326172" xlink:href="#DejaVuSans-6c"/>
       <use x="287.109375" xlink:href="#DejaVuSans-65"/>
       <use x="348.632812" xlink:href="#DejaVuSans-73"/>
       <use x="400.732422" xlink:href="#DejaVuSans-41"/>
       <use x="469.125" xlink:href="#DejaVuSans-74"/>
       <use x="508.333984" xlink:href="#DejaVuSans-74"/>
       <use x="547.542969" xlink:href="#DejaVuSans-65"/>
       <use x="609.066406" xlink:href="#DejaVuSans-6d"/>
       <use x="706.478516" xlink:href="#DejaVuSans-70"/>
       <use x="769.955078" xlink:href="#DejaVuSans-74"/>
       <use x="809.164062" xlink:href="#DejaVuSans-65"/>
       <use x="870.6875" xlink:href="#DejaVuSans-64"/>
      </g>
     </g>
    </g>
    <g id="xtick_20">
     <g id="line2d_20">
      <g>
       <use style="stroke:#000000;stroke-width:0.8;" x="2250" xlink:href="#mfa1070cfe4" y="512.64"/>
      </g>
     </g>
     <g id="text_20">
      <!-- foulsCommited -->
      <defs>
       <path d="M 64.40625 67.28125 
L 64.40625 56.890625 
Q 59.421875 61.53125 53.78125 63.8125 
Q 48.140625 66.109375 41.796875 66.109375 
Q 29.296875 66.109375 22.65625 58.46875 
Q 16.015625 50.828125 16.015625 36.375 
Q 16.015625 21.96875 22.65625 14.328125 
Q 29.296875 6.6875 41.796875 6.6875 
Q 48.140625 6.6875 53.78125 8.984375 
Q 59.421875 11.28125 64.40625 15.921875 
L 64.40625 5.609375 
Q 59.234375 2.09375 53.4375 0.328125 
Q 47.65625 -1.421875 41.21875 -1.421875 
Q 24.65625 -1.421875 15.125 8.703125 
Q 5.609375 18.84375 5.609375 36.375 
Q 5.609375 53.953125 15.125 64.078125 
Q 24.65625 74.21875 41.21875 74.21875 
Q 47.75 74.21875 53.53125 72.484375 
Q 59.328125 70.75 64.40625 67.28125 
z
" id="DejaVuSans-43"/>
      </defs>
      <g transform="translate(2212.126563 527.238438)scale(0.1 -0.1)">
       <use xlink:href="#DejaVuSans-66"/>
       <use x="35.205078" xlink:href="#DejaVuSans-6f"/>
       <use x="96.386719" xlink:href="#DejaVuSans-75"/>
       <use x="159.765625" xlink:href="#DejaVuSans-6c"/>
       <use x="187.548828" xlink:href="#DejaVuSans-73"/>
       <use x="239.648438" xlink:href="#DejaVuSans-43"/>
       <use x="309.472656" xlink:href="#DejaVuSans-6f"/>
       <use x="370.654297" xlink:href="#DejaVuSans-6d"/>
       <use x="468.066406" xlink:href="#DejaVuSans-6d"/>
       <use x="565.478516" xlink:href="#DejaVuSans-69"/>
       <use x="593.261719" xlink:href="#DejaVuSans-74"/>
       <use x="632.470703" xlink:href="#DejaVuSans-65"/>
       <use x="693.994141" xlink:href="#DejaVuSans-64"/>
      </g>
     </g>
    </g>
    <g id="xtick_21">
     <g id="line2d_21">
      <g>
       <use style="stroke:#000000;stroke-width:0.8;" x="2340" xlink:href="#mfa1070cfe4" y="512.64"/>
      </g>
     </g>
     <g id="text_21">
      <!-- dribblesWon -->
      <g transform="translate(2308.794531 527.238438)scale(0.1 -0.1)">
       <use xlink:href="#DejaVuSans-64"/>
       <use x="63.476562" xlink:href="#DejaVuSans-72"/>
       <use x="104.589844" xlink:href="#DejaVuSans-69"/>
       <use x="132.373047" xlink:href="#DejaVuSans-62"/>
       <use x="195.849609" xlink:href="#DejaVuSans-62"/>
       <use x="259.326172" xlink:href="#DejaVuSans-6c"/>
       <use x="287.109375" xlink:href="#DejaVuSans-65"/>
       <use x="348.632812" xlink:href="#DejaVuSans-73"/>
       <use x="400.732422" xlink:href="#DejaVuSans-57"/>
       <use x="499.53125" xlink:href="#DejaVuSans-6f"/>
       <use x="560.712891" xlink:href="#DejaVuSans-6e"/>
      </g>
     </g>
    </g>
    <g id="xtick_22">
     <g id="line2d_22">
      <g>
       <use style="stroke:#000000;stroke-width:0.8;" x="2430" xlink:href="#mfa1070cfe4" y="512.64"/>
      </g>
     </g>
     <g id="text_22">
      <!-- cornersTotal -->
      <g transform="translate(2398.717969 527.238438)scale(0.1 -0.1)">
       <use xlink:href="#DejaVuSans-63"/>
       <use x="54.980469" xlink:href="#DejaVuSans-6f"/>
       <use x="116.162109" xlink:href="#DejaVuSans-72"/>
       <use x="157.259766" xlink:href="#DejaVuSans-6e"/>
       <use x="220.638672" xlink:href="#DejaVuSans-65"/>
       <use x="282.162109" xlink:href="#DejaVuSans-72"/>
       <use x="323.275391" xlink:href="#DejaVuSans-73"/>
       <use x="375.375" xlink:href="#DejaVuSans-54"/>
       <use x="436.193359" xlink:href="#DejaVuSans-6f"/>
       <use x="497.375" xlink:href="#DejaVuSans-74"/>
       <use x="536.583984" xlink:href="#DejaVuSans-61"/>
       <use x="597.863281" xlink:href="#DejaVuSans-6c"/>
      </g>
     </g>
    </g>
    <g id="xtick_23">
     <g id="line2d_23">
      <g>
       <use style="stroke:#000000;stroke-width:0.8;" x="2520" xlink:href="#mfa1070cfe4" y="512.64"/>
      </g>
     </g>
     <g id="text_23">
      <!-- dribblesLost -->
      <defs>
       <path d="M 9.8125 72.90625 
L 19.671875 72.90625 
L 19.671875 8.296875 
L 55.171875 8.296875 
L 55.171875 0 
L 9.8125 0 
z
" id="DejaVuSans-4c"/>
      </defs>
      <g transform="translate(2489.553125 527.238438)scale(0.1 -0.1)">
       <use xlink:href="#DejaVuSans-64"/>
       <use x="63.476562" xlink:href="#DejaVuSans-72"/>
       <use x="104.589844" xlink:href="#DejaVuSans-69"/>
       <use x="132.373047" xlink:href="#DejaVuSans-62"/>
       <use x="195.849609" xlink:href="#DejaVuSans-62"/>
       <use x="259.326172" xlink:href="#DejaVuSans-6c"/>
       <use x="287.109375" xlink:href="#DejaVuSans-65"/>
       <use x="348.632812" xlink:href="#DejaVuSans-73"/>
       <use x="400.732422" xlink:href="#DejaVuSans-4c"/>
       <use x="456.429688" xlink:href="#DejaVuSans-6f"/>
       <use x="517.611328" xlink:href="#DejaVuSans-73"/>
       <use x="569.710938" xlink:href="#DejaVuSans-74"/>
      </g>
     </g>
    </g>
    <g id="xtick_24">
     <g id="line2d_24">
      <g>
       <use style="stroke:#000000;stroke-width:0.8;" x="2610" xlink:href="#mfa1070cfe4" y="512.64"/>
      </g>
     </g>
     <g id="text_24">
      <!-- dribbledPast -->
      <defs>
       <path d="M 19.671875 64.796875 
L 19.671875 37.40625 
L 32.078125 37.40625 
Q 38.96875 37.40625 42.71875 40.96875 
Q 46.484375 44.53125 46.484375 51.125 
Q 46.484375 57.671875 42.71875 61.234375 
Q 38.96875 64.796875 32.078125 64.796875 
z
M 9.8125 72.90625 
L 32.078125 72.90625 
Q 44.34375 72.90625 50.609375 67.359375 
Q 56.890625 61.8125 56.890625 51.125 
Q 56.890625 40.328125 50.609375 34.8125 
Q 44.34375 29.296875 32.078125 29.296875 
L 19.671875 29.296875 
L 19.671875 0 
L 9.8125 0 
z
" id="DejaVuSans-50"/>
      </defs>
      <g transform="translate(2578.752344 527.238438)scale(0.1 -0.1)">
       <use xlink:href="#DejaVuSans-64"/>
       <use x="63.476562" xlink:href="#DejaVuSans-72"/>
       <use x="104.589844" xlink:href="#DejaVuSans-69"/>
       <use x="132.373047" xlink:href="#DejaVuSans-62"/>
       <use x="195.849609" xlink:href="#DejaVuSans-62"/>
       <use x="259.326172" xlink:href="#DejaVuSans-6c"/>
       <use x="287.109375" xlink:href="#DejaVuSans-65"/>
       <use x="348.632812" xlink:href="#DejaVuSans-64"/>
       <use x="412.109375" xlink:href="#DejaVuSans-50"/>
       <use x="472.349609" xlink:href="#DejaVuSans-61"/>
       <use x="533.628906" xlink:href="#DejaVuSans-73"/>
       <use x="585.728516" xlink:href="#DejaVuSans-74"/>
      </g>
     </g>
    </g>
    <g id="xtick_25">
     <g id="line2d_25">
      <g>
       <use style="stroke:#000000;stroke-width:0.8;" x="2700" xlink:href="#mfa1070cfe4" y="512.64"/>
      </g>
     </g>
     <g id="text_25">
      <!-- tackleUnsuccesful -->
      <defs>
       <path d="M 8.6875 72.90625 
L 18.609375 72.90625 
L 18.609375 28.609375 
Q 18.609375 16.890625 22.84375 11.734375 
Q 27.09375 6.59375 36.625 6.59375 
Q 46.09375 6.59375 50.34375 11.734375 
Q 54.59375 16.890625 54.59375 28.609375 
L 54.59375 72.90625 
L 64.5 72.90625 
L 64.5 27.390625 
Q 64.5 13.140625 57.4375 5.859375 
Q 50.390625 -1.421875 36.625 -1.421875 
Q 22.796875 -1.421875 15.734375 5.859375 
Q 8.6875 13.140625 8.6875 27.390625 
z
" id="DejaVuSans-55"/>
      </defs>
      <g transform="translate(2654.766406 527.238438)scale(0.1 -0.1)">
       <use xlink:href="#DejaVuSans-74"/>
       <use x="39.208984" xlink:href="#DejaVuSans-61"/>
       <use x="100.488281" xlink:href="#DejaVuSans-63"/>
       <use x="155.46875" xlink:href="#DejaVuSans-6b"/>
       <use x="213.378906" xlink:href="#DejaVuSans-6c"/>
       <use x="241.162109" xlink:href="#DejaVuSans-65"/>
       <use x="302.685547" xlink:href="#DejaVuSans-55"/>
       <use x="375.878906" xlink:href="#DejaVuSans-6e"/>
       <use x="439.257812" xlink:href="#DejaVuSans-73"/>
       <use x="491.357422" xlink:href="#DejaVuSans-75"/>
       <use x="554.736328" xlink:href="#DejaVuSans-63"/>
       <use x="609.716797" xlink:href="#DejaVuSans-63"/>
       <use x="664.697266" xlink:href="#DejaVuSans-65"/>
       <use x="726.220703" xlink:href="#DejaVuSans-73"/>
       <use x="778.320312" xlink:href="#DejaVuSans-66"/>
       <use x="813.525391" xlink:href="#DejaVuSans-75"/>
       <use x="876.904297" xlink:href="#DejaVuSans-6c"/>
      </g>
     </g>
    </g>
    <g id="xtick_26">
     <g id="line2d_26">
      <g>
       <use style="stroke:#000000;stroke-width:0.8;" x="2790" xlink:href="#mfa1070cfe4" y="512.64"/>
      </g>
     </g>
     <g id="text_26">
      <!-- shotsOffTarget -->
      <g transform="translate(2752.775 527.238438)scale(0.1 -0.1)">
       <use xlink:href="#DejaVuSans-73"/>
       <use x="52.099609" xlink:href="#DejaVuSans-68"/>
       <use x="115.478516" xlink:href="#DejaVuSans-6f"/>
       <use x="176.660156" xlink:href="#DejaVuSans-74"/>
       <use x="215.869141" xlink:href="#DejaVuSans-73"/>
       <use x="267.96875" xlink:href="#DejaVuSans-4f"/>
       <use x="346.679688" xlink:href="#DejaVuSans-66"/>
       <use x="381.884766" xlink:href="#DejaVuSans-66"/>
       <use x="417.089844" xlink:href="#DejaVuSans-54"/>
       <use x="477.923828" xlink:href="#DejaVuSans-61"/>
       <use x="539.203125" xlink:href="#DejaVuSans-72"/>
       <use x="580.300781" xlink:href="#DejaVuSans-67"/>
       <use x="643.777344" xlink:href="#DejaVuSans-65"/>
       <use x="705.300781" xlink:href="#DejaVuSans-74"/>
      </g>
     </g>
    </g>
    <g id="xtick_27">
     <g id="line2d_27">
      <g>
       <use style="stroke:#000000;stroke-width:0.8;" x="2880" xlink:href="#mfa1070cfe4" y="512.64"/>
      </g>
     </g>
     <g id="text_27">
      <!-- shotsBlocked -->
      <defs>
       <path d="M 19.671875 34.8125 
L 19.671875 8.109375 
L 35.5 8.109375 
Q 43.453125 8.109375 47.28125 11.40625 
Q 51.125 14.703125 51.125 21.484375 
Q 51.125 28.328125 47.28125 31.5625 
Q 43.453125 34.8125 35.5 34.8125 
z
M 19.671875 64.796875 
L 19.671875 42.828125 
L 34.28125 42.828125 
Q 41.5 42.828125 45.03125 45.53125 
Q 48.578125 48.25 48.578125 53.8125 
Q 48.578125 59.328125 45.03125 62.0625 
Q 41.5 64.796875 34.28125 64.796875 
z
M 9.8125 72.90625 
L 35.015625 72.90625 
Q 46.296875 72.90625 52.390625 68.21875 
Q 58.5 63.53125 58.5 54.890625 
Q 58.5 48.1875 55.375 44.234375 
Q 52.25 40.28125 46.1875 39.3125 
Q 53.46875 37.75 57.5 32.78125 
Q 61.53125 27.828125 61.53125 20.40625 
Q 61.53125 10.640625 54.890625 5.3125 
Q 48.25 0 35.984375 0 
L 9.8125 0 
z
" id="DejaVuSans-42"/>
      </defs>
      <g transform="translate(2846.830469 527.238438)scale(0.1 -0.1)">
       <use xlink:href="#DejaVuSans-73"/>
       <use x="52.099609" xlink:href="#DejaVuSans-68"/>
       <use x="115.478516" xlink:href="#DejaVuSans-6f"/>
       <use x="176.660156" xlink:href="#DejaVuSans-74"/>
       <use x="215.869141" xlink:href="#DejaVuSans-73"/>
       <use x="267.96875" xlink:href="#DejaVuSans-42"/>
       <use x="336.572266" xlink:href="#DejaVuSans-6c"/>
       <use x="364.355469" xlink:href="#DejaVuSans-6f"/>
       <use x="425.537109" xlink:href="#DejaVuSans-63"/>
       <use x="480.517578" xlink:href="#DejaVuSans-6b"/>
       <use x="538.380859" xlink:href="#DejaVuSans-65"/>
       <use x="599.904297" xlink:href="#DejaVuSans-64"/>
      </g>
     </g>
    </g>
    <g id="xtick_28">
     <g id="line2d_28">
      <g>
       <use style="stroke:#000000;stroke-width:0.8;" x="2970" xlink:href="#mfa1070cfe4" y="512.64"/>
      </g>
     </g>
     <g id="text_28">
      <!-- cornersAccurate -->
      <g transform="translate(2928.988281 527.238438)scale(0.1 -0.1)">
       <use xlink:href="#DejaVuSans-63"/>
       <use x="54.980469" xlink:href="#DejaVuSans-6f"/>
       <use x="116.162109" xlink:href="#DejaVuSans-72"/>
       <use x="157.259766" xlink:href="#DejaVuSans-6e"/>
       <use x="220.638672" xlink:href="#DejaVuSans-65"/>
       <use x="282.162109" xlink:href="#DejaVuSans-72"/>
       <use x="323.275391" xlink:href="#DejaVuSans-73"/>
       <use x="375.375" xlink:href="#DejaVuSans-41"/>
       <use x="443.767578" xlink:href="#DejaVuSans-63"/>
       <use x="498.748047" xlink:href="#DejaVuSans-63"/>
       <use x="553.728516" xlink:href="#DejaVuSans-75"/>
       <use x="617.107422" xlink:href="#DejaVuSans-72"/>
       <use x="658.220703" xlink:href="#DejaVuSans-61"/>
       <use x="719.5" xlink:href="#DejaVuSans-74"/>
       <use x="758.708984" xlink:href="#DejaVuSans-65"/>
      </g>
     </g>
    </g>
    <g id="xtick_29">
     <g id="line2d_29">
      <g>
       <use style="stroke:#000000;stroke-width:0.8;" x="3060" xlink:href="#mfa1070cfe4" y="512.64"/>
      </g>
     </g>
     <g id="text_29">
      <!-- offsidesCaught -->
      <g transform="translate(3022.54375 527.238438)scale(0.1 -0.1)">
       <use xlink:href="#DejaVuSans-6f"/>
       <use x="61.181641" xlink:href="#DejaVuSans-66"/>
       <use x="96.386719" xlink:href="#DejaVuSans-66"/>
       <use x="131.591797" xlink:href="#DejaVuSans-73"/>
       <use x="183.691406" xlink:href="#DejaVuSans-69"/>
       <use x="211.474609" xlink:href="#DejaVuSans-64"/>
       <use x="274.951172" xlink:href="#DejaVuSans-65"/>
       <use x="336.474609" xlink:href="#DejaVuSans-73"/>
       <use x="388.574219" xlink:href="#DejaVuSans-43"/>
       <use x="458.398438" xlink:href="#DejaVuSans-61"/>
       <use x="519.677734" xlink:href="#DejaVuSans-75"/>
       <use x="583.056641" xlink:href="#DejaVuSans-67"/>
       <use x="646.533203" xlink:href="#DejaVuSans-68"/>
       <use x="709.912109" xlink:href="#DejaVuSans-74"/>
      </g>
     </g>
    </g>
    <g id="xtick_30">
     <g id="line2d_30">
      <g>
       <use style="stroke:#000000;stroke-width:0.8;" x="3150" xlink:href="#mfa1070cfe4" y="512.64"/>
      </g>
     </g>
     <g id="text_30">
      <!-- errorsCount -->
      <g transform="translate(3120.246875 527.238438)scale(0.1 -0.1)">
       <use xlink:href="#DejaVuSans-65"/>
       <use x="61.523438" xlink:href="#DejaVuSans-72"/>
       <use x="102.621094" xlink:href="#DejaVuSans-72"/>
       <use x="143.703125" xlink:href="#DejaVuSans-6f"/>
       <use x="204.884766" xlink:href="#DejaVuSans-72"/>
       <use x="245.998047" xlink:href="#DejaVuSans-73"/>
       <use x="298.097656" xlink:href="#DejaVuSans-43"/>
       <use x="367.921875" xlink:href="#DejaVuSans-6f"/>
       <use x="429.103516" xlink:href="#DejaVuSans-75"/>
       <use x="492.482422" xlink:href="#DejaVuSans-6e"/>
       <use x="555.861328" xlink:href="#DejaVuSans-74"/>
      </g>
     </g>
    </g>
   </g>
   <g id="matplotlib.axis_2">
    <g id="ytick_1">
     <g id="line2d_31">
      <defs>
       <path d="M 0 0 
L -3.5 0 
" id="mc689d11c17" style="stroke:#000000;stroke-width:0.8;"/>
      </defs>
      <g>
       <use style="stroke:#000000;stroke-width:0.8;" x="450" xlink:href="#mc689d11c17" y="512.64"/>
      </g>
     </g>
     <g id="text_31">
      <!-- 0.00 -->
      <defs>
       <path d="M 31.78125 66.40625 
Q 24.171875 66.40625 20.328125 58.90625 
Q 16.5 51.421875 16.5 36.375 
Q 16.5 21.390625 20.328125 13.890625 
Q 24.171875 6.390625 31.78125 6.390625 
Q 39.453125 6.390625 43.28125 13.890625 
Q 47.125 21.390625 47.125 36.375 
Q 47.125 51.421875 43.28125 58.90625 
Q 39.453125 66.40625 31.78125 66.40625 
z
M 31.78125 74.21875 
Q 44.046875 74.21875 50.515625 64.515625 
Q 56.984375 54.828125 56.984375 36.375 
Q 56.984375 17.96875 50.515625 8.265625 
Q 44.046875 -1.421875 31.78125 -1.421875 
Q 19.53125 -1.421875 13.0625 8.265625 
Q 6.59375 17.96875 6.59375 36.375 
Q 6.59375 54.828125 13.0625 64.515625 
Q 19.53125 74.21875 31.78125 74.21875 
z
" id="DejaVuSans-30"/>
       <path d="M 10.6875 12.40625 
L 21 12.40625 
L 21 0 
L 10.6875 0 
z
" id="DejaVuSans-2e"/>
      </defs>
      <g transform="translate(420.734375 516.439219)scale(0.1 -0.1)">
       <use xlink:href="#DejaVuSans-30"/>
       <use x="63.623047" xlink:href="#DejaVuSans-2e"/>
       <use x="95.410156" xlink:href="#DejaVuSans-30"/>
       <use x="159.033203" xlink:href="#DejaVuSans-30"/>
      </g>
     </g>
    </g>
    <g id="ytick_2">
     <g id="line2d_32">
      <g>
       <use style="stroke:#000000;stroke-width:0.8;" x="450" xlink:href="#mc689d11c17" y="439.159157"/>
      </g>
     </g>
     <g id="text_32">
      <!-- 0.02 -->
      <defs>
       <path d="M 19.1875 8.296875 
L 53.609375 8.296875 
L 53.609375 0 
L 7.328125 0 
L 7.328125 8.296875 
Q 12.9375 14.109375 22.625 23.890625 
Q 32.328125 33.6875 34.8125 36.53125 
Q 39.546875 41.84375 41.421875 45.53125 
Q 43.3125 49.21875 43.3125 52.78125 
Q 43.3125 58.59375 39.234375 62.25 
Q 35.15625 65.921875 28.609375 65.921875 
Q 23.96875 65.921875 18.8125 64.3125 
Q 13.671875 62.703125 7.8125 59.421875 
L 7.8125 69.390625 
Q 13.765625 71.78125 18.9375 73 
Q 24.125 74.21875 28.421875 74.21875 
Q 39.75 74.21875 46.484375 68.546875 
Q 53.21875 62.890625 53.21875 53.421875 
Q 53.21875 48.921875 51.53125 44.890625 
Q 49.859375 40.875 45.40625 35.40625 
Q 44.1875 33.984375 37.640625 27.21875 
Q 31.109375 20.453125 19.1875 8.296875 
z
" id="DejaVuSans-32"/>
      </defs>
      <g transform="translate(420.734375 442.958376)scale(0.1 -0.1)">
       <use xlink:href="#DejaVuSans-30"/>
       <use x="63.623047" xlink:href="#DejaVuSans-2e"/>
       <use x="95.410156" xlink:href="#DejaVuSans-30"/>
       <use x="159.033203" xlink:href="#DejaVuSans-32"/>
      </g>
     </g>
    </g>
    <g id="ytick_3">
     <g id="line2d_33">
      <g>
       <use style="stroke:#000000;stroke-width:0.8;" x="450" xlink:href="#mc689d11c17" y="365.678314"/>
      </g>
     </g>
     <g id="text_33">
      <!-- 0.04 -->
      <defs>
       <path d="M 37.796875 64.3125 
L 12.890625 25.390625 
L 37.796875 25.390625 
z
M 35.203125 72.90625 
L 47.609375 72.90625 
L 47.609375 25.390625 
L 58.015625 25.390625 
L 58.015625 17.1875 
L 47.609375 17.1875 
L 47.609375 0 
L 37.796875 0 
L 37.796875 17.1875 
L 4.890625 17.1875 
L 4.890625 26.703125 
z
" id="DejaVuSans-34"/>
      </defs>
      <g transform="translate(420.734375 369.477533)scale(0.1 -0.1)">
       <use xlink:href="#DejaVuSans-30"/>
       <use x="63.623047" xlink:href="#DejaVuSans-2e"/>
       <use x="95.410156" xlink:href="#DejaVuSans-30"/>
       <use x="159.033203" xlink:href="#DejaVuSans-34"/>
      </g>
     </g>
    </g>
    <g id="ytick_4">
     <g id="line2d_34">
      <g>
       <use style="stroke:#000000;stroke-width:0.8;" x="450" xlink:href="#mc689d11c17" y="292.197471"/>
      </g>
     </g>
     <g id="text_34">
      <!-- 0.06 -->
      <defs>
       <path d="M 33.015625 40.375 
Q 26.375 40.375 22.484375 35.828125 
Q 18.609375 31.296875 18.609375 23.390625 
Q 18.609375 15.53125 22.484375 10.953125 
Q 26.375 6.390625 33.015625 6.390625 
Q 39.65625 6.390625 43.53125 10.953125 
Q 47.40625 15.53125 47.40625 23.390625 
Q 47.40625 31.296875 43.53125 35.828125 
Q 39.65625 40.375 33.015625 40.375 
z
M 52.59375 71.296875 
L 52.59375 62.3125 
Q 48.875 64.0625 45.09375 64.984375 
Q 41.3125 65.921875 37.59375 65.921875 
Q 27.828125 65.921875 22.671875 59.328125 
Q 17.53125 52.734375 16.796875 39.40625 
Q 19.671875 43.65625 24.015625 45.921875 
Q 28.375 48.1875 33.59375 48.1875 
Q 44.578125 48.1875 50.953125 41.515625 
Q 57.328125 34.859375 57.328125 23.390625 
Q 57.328125 12.15625 50.6875 5.359375 
Q 44.046875 -1.421875 33.015625 -1.421875 
Q 20.359375 -1.421875 13.671875 8.265625 
Q 6.984375 17.96875 6.984375 36.375 
Q 6.984375 53.65625 15.1875 63.9375 
Q 23.390625 74.21875 37.203125 74.21875 
Q 40.921875 74.21875 44.703125 73.484375 
Q 48.484375 72.75 52.59375 71.296875 
z
" id="DejaVuSans-36"/>
      </defs>
      <g transform="translate(420.734375 295.99669)scale(0.1 -0.1)">
       <use xlink:href="#DejaVuSans-30"/>
       <use x="63.623047" xlink:href="#DejaVuSans-2e"/>
       <use x="95.410156" xlink:href="#DejaVuSans-30"/>
       <use x="159.033203" xlink:href="#DejaVuSans-36"/>
      </g>
     </g>
    </g>
    <g id="ytick_5">
     <g id="line2d_35">
      <g>
       <use style="stroke:#000000;stroke-width:0.8;" x="450" xlink:href="#mc689d11c17" y="218.716628"/>
      </g>
     </g>
     <g id="text_35">
      <!-- 0.08 -->
      <defs>
       <path d="M 31.78125 34.625 
Q 24.75 34.625 20.71875 30.859375 
Q 16.703125 27.09375 16.703125 20.515625 
Q 16.703125 13.921875 20.71875 10.15625 
Q 24.75 6.390625 31.78125 6.390625 
Q 38.8125 6.390625 42.859375 10.171875 
Q 46.921875 13.96875 46.921875 20.515625 
Q 46.921875 27.09375 42.890625 30.859375 
Q 38.875 34.625 31.78125 34.625 
z
M 21.921875 38.8125 
Q 15.578125 40.375 12.03125 44.71875 
Q 8.5 49.078125 8.5 55.328125 
Q 8.5 64.0625 14.71875 69.140625 
Q 20.953125 74.21875 31.78125 74.21875 
Q 42.671875 74.21875 48.875 69.140625 
Q 55.078125 64.0625 55.078125 55.328125 
Q 55.078125 49.078125 51.53125 44.71875 
Q 48 40.375 41.703125 38.8125 
Q 48.828125 37.15625 52.796875 32.3125 
Q 56.78125 27.484375 56.78125 20.515625 
Q 56.78125 9.90625 50.3125 4.234375 
Q 43.84375 -1.421875 31.78125 -1.421875 
Q 19.734375 -1.421875 13.25 4.234375 
Q 6.78125 9.90625 6.78125 20.515625 
Q 6.78125 27.484375 10.78125 32.3125 
Q 14.796875 37.15625 21.921875 38.8125 
z
M 18.3125 54.390625 
Q 18.3125 48.734375 21.84375 45.5625 
Q 25.390625 42.390625 31.78125 42.390625 
Q 38.140625 42.390625 41.71875 45.5625 
Q 45.3125 48.734375 45.3125 54.390625 
Q 45.3125 60.0625 41.71875 63.234375 
Q 38.140625 66.40625 31.78125 66.40625 
Q 25.390625 66.40625 21.84375 63.234375 
Q 18.3125 60.0625 18.3125 54.390625 
z
" id="DejaVuSans-38"/>
      </defs>
      <g transform="translate(420.734375 222.515847)scale(0.1 -0.1)">
       <use xlink:href="#DejaVuSans-30"/>
       <use x="63.623047" xlink:href="#DejaVuSans-2e"/>
       <use x="95.410156" xlink:href="#DejaVuSans-30"/>
       <use x="159.033203" xlink:href="#DejaVuSans-38"/>
      </g>
     </g>
    </g>
    <g id="ytick_6">
     <g id="line2d_36">
      <g>
       <use style="stroke:#000000;stroke-width:0.8;" x="450" xlink:href="#mc689d11c17" y="145.235785"/>
      </g>
     </g>
     <g id="text_36">
      <!-- 0.10 -->
      <defs>
       <path d="M 12.40625 8.296875 
L 28.515625 8.296875 
L 28.515625 63.921875 
L 10.984375 60.40625 
L 10.984375 69.390625 
L 28.421875 72.90625 
L 38.28125 72.90625 
L 38.28125 8.296875 
L 54.390625 8.296875 
L 54.390625 0 
L 12.40625 0 
z
" id="DejaVuSans-31"/>
      </defs>
      <g transform="translate(420.734375 149.035004)scale(0.1 -0.1)">
       <use xlink:href="#DejaVuSans-30"/>
       <use x="63.623047" xlink:href="#DejaVuSans-2e"/>
       <use x="95.410156" xlink:href="#DejaVuSans-31"/>
       <use x="159.033203" xlink:href="#DejaVuSans-30"/>
      </g>
     </g>
    </g>
    <g id="ytick_7">
     <g id="line2d_37">
      <g>
       <use style="stroke:#000000;stroke-width:0.8;" x="450" xlink:href="#mc689d11c17" y="71.754942"/>
      </g>
     </g>
     <g id="text_37">
      <!-- 0.12 -->
      <g transform="translate(420.734375 75.554161)scale(0.1 -0.1)">
       <use xlink:href="#DejaVuSans-30"/>
       <use x="63.623047" xlink:href="#DejaVuSans-2e"/>
       <use x="95.410156" xlink:href="#DejaVuSans-31"/>
       <use x="159.033203" xlink:href="#DejaVuSans-32"/>
      </g>
     </g>
    </g>
   </g>
   <g id="LineCollection_1">
    <path clip-path="url(#pec1d3891be)" d="M 540 341.468806 
L 540 90.24 
" style="fill:none;stroke:#000000;stroke-width:1.5;"/>
    <path clip-path="url(#pec1d3891be)" d="M 630 356.427474 
L 630 247.769696 
" style="fill:none;stroke:#000000;stroke-width:1.5;"/>
    <path clip-path="url(#pec1d3891be)" d="M 720 388.299966 
L 720 271.681925 
" style="fill:none;stroke:#000000;stroke-width:1.5;"/>
    <path clip-path="url(#pec1d3891be)" d="M 810 400.901341 
L 810 290.35824 
" style="fill:none;stroke:#000000;stroke-width:1.5;"/>
    <path clip-path="url(#pec1d3891be)" d="M 900 447.336479 
L 900 276.870826 
" style="fill:none;stroke:#000000;stroke-width:1.5;"/>
    <path clip-path="url(#pec1d3891be)" d="M 990 450.004136 
L 990 276.535634 
" style="fill:none;stroke:#000000;stroke-width:1.5;"/>
    <path clip-path="url(#pec1d3891be)" d="M 1080 441.514075 
L 1080 301.698595 
" style="fill:none;stroke:#000000;stroke-width:1.5;"/>
    <path clip-path="url(#pec1d3891be)" d="M 1170 436.352921 
L 1170 306.898554 
" style="fill:none;stroke:#000000;stroke-width:1.5;"/>
    <path clip-path="url(#pec1d3891be)" d="M 1260 440.788561 
L 1260 317.27079 
" style="fill:none;stroke:#000000;stroke-width:1.5;"/>
    <path clip-path="url(#pec1d3891be)" d="M 1350 438.400836 
L 1350 331.053099 
" style="fill:none;stroke:#000000;stroke-width:1.5;"/>
    <path clip-path="url(#pec1d3891be)" d="M 1440 434.878795 
L 1440 352.058381 
" style="fill:none;stroke:#000000;stroke-width:1.5;"/>
    <path clip-path="url(#pec1d3891be)" d="M 1530 434.050062 
L 1530 355.337021 
" style="fill:none;stroke:#000000;stroke-width:1.5;"/>
    <path clip-path="url(#pec1d3891be)" d="M 1620 437.290219 
L 1620 357.986501 
" style="fill:none;stroke:#000000;stroke-width:1.5;"/>
    <path clip-path="url(#pec1d3891be)" d="M 1710 438.074328 
L 1710 358.028358 
" style="fill:none;stroke:#000000;stroke-width:1.5;"/>
    <path clip-path="url(#pec1d3891be)" d="M 1800 436.40965 
L 1800 360.749462 
" style="fill:none;stroke:#000000;stroke-width:1.5;"/>
    <path clip-path="url(#pec1d3891be)" d="M 1890 438.454976 
L 1890 362.070539 
" style="fill:none;stroke:#000000;stroke-width:1.5;"/>
    <path clip-path="url(#pec1d3891be)" d="M 1980 438.156301 
L 1980 365.798362 
" style="fill:none;stroke:#000000;stroke-width:1.5;"/>
    <path clip-path="url(#pec1d3891be)" d="M 2070 441.438386 
L 2070 366.066398 
" style="fill:none;stroke:#000000;stroke-width:1.5;"/>
    <path clip-path="url(#pec1d3891be)" d="M 2160 443.972479 
L 2160 370.970685 
" style="fill:none;stroke:#000000;stroke-width:1.5;"/>
    <path clip-path="url(#pec1d3891be)" d="M 2250 444.069381 
L 2250 374.423758 
" style="fill:none;stroke:#000000;stroke-width:1.5;"/>
    <path clip-path="url(#pec1d3891be)" d="M 2340 446.82739 
L 2340 375.144696 
" style="fill:none;stroke:#000000;stroke-width:1.5;"/>
    <path clip-path="url(#pec1d3891be)" d="M 2430 451.97841 
L 2430 381.886348 
" style="fill:none;stroke:#000000;stroke-width:1.5;"/>
    <path clip-path="url(#pec1d3891be)" d="M 2520 450.230156 
L 2520 383.67874 
" style="fill:none;stroke:#000000;stroke-width:1.5;"/>
    <path clip-path="url(#pec1d3891be)" d="M 2610 455.011659 
L 2610 386.378362 
" style="fill:none;stroke:#000000;stroke-width:1.5;"/>
    <path clip-path="url(#pec1d3891be)" d="M 2700 457.3216 
L 2700 391.387709 
" style="fill:none;stroke:#000000;stroke-width:1.5;"/>
    <path clip-path="url(#pec1d3891be)" d="M 2790 456.07042 
L 2790 395.821452 
" style="fill:none;stroke:#000000;stroke-width:1.5;"/>
    <path clip-path="url(#pec1d3891be)" d="M 2880 458.261029 
L 2880 395.751696 
" style="fill:none;stroke:#000000;stroke-width:1.5;"/>
    <path clip-path="url(#pec1d3891be)" d="M 2970 469.581328 
L 2970 408.594412 
" style="fill:none;stroke:#000000;stroke-width:1.5;"/>
    <path clip-path="url(#pec1d3891be)" d="M 3060 467.69822 
L 3060 411.48508 
" style="fill:none;stroke:#000000;stroke-width:1.5;"/>
    <path clip-path="url(#pec1d3891be)" d="M 3150 481.267517 
L 3150 423.783477 
" style="fill:none;stroke:#000000;stroke-width:1.5;"/>
   </g>
   <g id="patch_33">
    <path d="M 450 512.64 
L 450 69.12 
" style="fill:none;stroke:#000000;stroke-linecap:square;stroke-linejoin:miter;stroke-width:0.8;"/>
   </g>
   <g id="patch_34">
    <path d="M 3240 512.64 
L 3240 69.12 
" style="fill:none;stroke:#000000;stroke-linecap:square;stroke-linejoin:miter;stroke-width:0.8;"/>
   </g>
   <g id="patch_35">
    <path d="M 450 512.64 
L 3240 512.64 
" style="fill:none;stroke:#000000;stroke-linecap:square;stroke-linejoin:miter;stroke-width:0.8;"/>
   </g>
   <g id="patch_36">
    <path d="M 450 69.12 
L 3240 69.12 
" style="fill:none;stroke:#000000;stroke-linecap:square;stroke-linejoin:miter;stroke-width:0.8;"/>
   </g>
   <g id="text_38">
    <!-- Feature importances -->
    <defs>
     <path d="M 9.8125 72.90625 
L 51.703125 72.90625 
L 51.703125 64.59375 
L 19.671875 64.59375 
L 19.671875 43.109375 
L 48.578125 43.109375 
L 48.578125 34.8125 
L 19.671875 34.8125 
L 19.671875 0 
L 9.8125 0 
z
" id="DejaVuSans-46"/>
     <path id="DejaVuSans-20"/>
    </defs>
    <g transform="translate(1782.560625 63.12)scale(0.12 -0.12)">
     <use xlink:href="#DejaVuSans-46"/>
     <use x="57.441406" xlink:href="#DejaVuSans-65"/>
     <use x="118.964844" xlink:href="#DejaVuSans-61"/>
     <use x="180.244141" xlink:href="#DejaVuSans-74"/>
     <use x="219.453125" xlink:href="#DejaVuSans-75"/>
     <use x="282.832031" xlink:href="#DejaVuSans-72"/>
     <use x="323.914062" xlink:href="#DejaVuSans-65"/>
     <use x="385.4375" xlink:href="#DejaVuSans-20"/>
     <use x="417.224609" xlink:href="#DejaVuSans-69"/>
     <use x="445.007812" xlink:href="#DejaVuSans-6d"/>
     <use x="542.419922" xlink:href="#DejaVuSans-70"/>
     <use x="605.896484" xlink:href="#DejaVuSans-6f"/>
     <use x="667.078125" xlink:href="#DejaVuSans-72"/>
     <use x="708.191406" xlink:href="#DejaVuSans-74"/>
     <use x="747.400391" xlink:href="#DejaVuSans-61"/>
     <use x="808.679688" xlink:href="#DejaVuSans-6e"/>
     <use x="872.058594" xlink:href="#DejaVuSans-63"/>
     <use x="927.039062" xlink:href="#DejaVuSans-65"/>
     <use x="988.5625" xlink:href="#DejaVuSans-73"/>
    </g>
   </g>
  </g>
 </g>
 <defs>
  <clipPath id="pec1d3891be">
   <rect height="443.52" width="2790" x="450" y="69.12"/>
  </clipPath>
 </defs>
</svg>
